<svg width="75" height="80" viewBox="0 0 75 80" fill="none" xmlns="http://www.w3.org/2000/svg">
<path d="M37.5855 0.28125C57.8119 0.28125 74.1997 18.0586 74.1997 40C74.1997 61.9414 57.8119 79.7188 37.5855 79.7188C17.3591 79.7188 0.971252 61.9414 0.971252 40C0.971252 18.0586 17.3591 0.28125 37.5855 0.28125ZM54.4015 37.2773L34.3965 15.5762C33.0087 14.0707 30.7646 14.0707 29.3916 15.5762L26.8817 18.2988C25.4939 19.8043 25.4939 22.2387 26.8817 23.7281L41.8818 40L26.8817 56.2719C25.4939 57.7773 25.4939 60.2117 26.8817 61.7012L29.3916 64.4238C30.7794 65.9293 33.0235 65.9293 34.3965 64.4238L54.4015 42.7227C55.7893 41.2172 55.7893 38.7828 54.4015 37.2773Z" fill="#375F75"/>
</svg>
