<svg width="77" height="82" viewBox="0 0 77 82" fill="none" xmlns="http://www.w3.org/2000/svg">
<path d="M38.5439 80.7188C18.3175 80.7188 1.92963 62.9414 1.92963 41C1.92963 19.0586 18.3175 1.28125 38.5439 1.28125C58.7703 1.28125 75.1582 19.0586 75.1582 41C75.1582 62.9414 58.7703 80.7188 38.5439 80.7188ZM21.7279 43.7227L41.7329 65.4238C43.1207 66.9293 45.3648 66.9293 46.7378 65.4238L49.2477 62.7012C50.6355 61.1957 50.6355 58.7613 49.2477 57.2719L34.2476 41L49.2477 24.7281C50.6355 23.2227 50.6355 20.7883 49.2477 19.2988L46.7378 16.5762C45.35 15.0707 43.1059 15.0707 41.7329 16.5762L21.7279 38.2773C20.3401 39.7828 20.3401 42.2172 21.7279 43.7227Z" fill="#ffcd00"/>
</svg>
