<svg width="449" height="305" viewBox="0 0 449 305" fill="none" xmlns="http://www.w3.org/2000/svg">
<g clip-path="url(#clip0)">
<path d="M177.23 243.7H1.94929C1.47075 243.699 1.01196 243.493 0.67358 243.127C0.335203 242.761 0.144871 242.265 0.144341 241.748V56.9847C0.144871 56.4672 0.335203 55.9711 0.67358 55.6052C1.01196 55.2393 1.47075 55.0335 1.94929 55.033H177.23C177.708 55.0335 178.167 55.2393 178.506 55.6052C178.844 55.9711 179.034 56.4672 179.035 56.9847V241.748C179.034 242.265 178.844 242.761 178.506 243.127C178.167 243.493 177.708 243.699 177.23 243.7Z" fill="#F0F0F0"/>
<path d="M158.178 71.948H21.0015C20.523 71.9488 20.0643 72.1547 19.726 72.5205C19.3877 72.8864 19.1973 73.3823 19.1966 73.8997V188.835C19.1973 189.352 19.3877 189.848 19.726 190.214C20.0644 190.58 20.523 190.786 21.0015 190.786H158.178C158.656 190.786 159.115 190.58 159.453 190.214C159.791 189.848 159.982 189.352 159.983 188.835V73.8997C159.982 73.3823 159.791 72.8864 159.453 72.5205C159.115 72.1547 158.656 71.9488 158.178 71.948Z" fill="white"/>
<path d="M150.356 213.34H28.823C28.5571 213.339 28.3023 213.225 28.1143 213.022C27.9263 212.818 27.8205 212.543 27.8202 212.255V206.183C27.8205 205.896 27.9263 205.62 28.1143 205.417C28.3023 205.214 28.5571 205.099 28.823 205.099H150.356C150.622 205.099 150.877 205.214 151.065 205.417C151.253 205.62 151.359 205.896 151.359 206.183V212.255C151.359 212.543 151.253 212.818 151.065 213.022C150.877 213.225 150.622 213.339 150.356 213.34Z" fill="white"/>
<path d="M108.241 228.086H28.823C28.5571 228.086 28.3023 227.971 28.1143 227.768C27.9263 227.565 27.8205 227.289 27.8202 227.002V220.93C27.8205 220.642 27.9263 220.367 28.1143 220.163C28.3023 219.96 28.5571 219.846 28.823 219.845H108.241C108.507 219.846 108.761 219.96 108.949 220.163C109.137 220.367 109.243 220.642 109.243 220.93V227.002C109.243 227.289 109.137 227.565 108.949 227.768C108.761 227.971 108.507 228.086 108.241 228.086Z" fill="white"/>
<path d="M86.2007 149.83C95.8333 149.83 103.642 141.386 103.642 130.97C103.642 120.554 95.8333 112.111 86.2007 112.111C76.5681 112.111 68.7593 120.554 68.7593 130.97C68.7593 141.386 76.5681 149.83 86.2007 149.83Z" fill="#FFB8B8"/>
<path d="M111.718 190.786H73.0483L74.3117 160.044L74.6128 159.702L78.9525 154.745H92.7622L97.8802 160.105L98.2936 160.539L109.191 171.833L111.718 190.786Z" fill="#375F75"/>
<path d="M79.6984 190.786H50.4422C50.3701 183.847 50.33 179.692 50.33 179.692L52.0225 178.577C52.0246 178.575 52.0275 178.573 52.0305 178.573H52.0346L70.6777 166.333L74.5924 159.459L74.6125 159.702L75.7638 174.192C75.7638 174.192 77.6649 180.837 79.6984 190.786Z" fill="#2F2E41"/>
<path d="M128.869 190.786H97.8803C98.3495 170.549 95.8227 159.459 97.1223 159.459L97.8803 160.105L107.013 167.903L119.05 172.679H119.058L127.357 175.97L128.813 176.547V177.289C128.817 179.067 128.825 183.929 128.869 190.786Z" fill="#2F2E41"/>
<path d="M69.7002 136.871C69.7002 136.871 71.182 134.057 70.8375 124.656C70.493 115.255 83.7316 120.572 94.7937 119.676C105.856 118.779 103.514 135.37 103.514 135.37C103.514 135.37 104.312 134.384 106.021 126.376C107.73 118.369 103.85 110.389 103.85 110.389C102.707 101.975 96.5497 104.671 96.5497 104.671C99.5152 105.92 98.9456 108.589 98.9456 108.589C96.4355 103.83 90.2777 106.527 90.2777 106.527C82.065 100.954 73.7416 108.293 73.7416 108.293C63.8202 110.727 69.6387 119.259 69.6387 119.259C59.6611 124.711 69.7002 136.871 69.7002 136.871Z" fill="#2F2E41"/>
<path d="M54.349 190.786H42.328C42.4217 189.185 42.4244 187.578 42.336 185.976C41.618 182.884 51.7178 178.703 52.0225 178.577C52.0246 178.575 52.0275 178.573 52.0305 178.573H52.0346L53.9599 179.692L54.349 190.786Z" fill="#2F2E41"/>
<path d="M131.039 190.786H118.413L116.836 173.958L118.605 172.562C118.605 172.562 118.766 172.601 119.05 172.679H119.058C120.474 173.056 124.854 174.305 127.357 175.971C127.914 176.308 128.408 176.756 128.813 177.289C129.061 177.611 129.185 178.024 129.158 178.443C129.094 179.072 129.832 183.704 131.039 190.786Z" fill="#2F2E41"/>
<path d="M447.1 188.667H271.819C271.341 188.666 270.882 188.46 270.544 188.094C270.205 187.729 270.015 187.232 270.014 186.715V1.95172C270.015 1.43427 270.205 0.938182 270.544 0.572286C270.882 0.206391 271.341 0.000575448 271.819 0H447.1C447.578 0.000565768 448.037 0.20637 448.376 0.572268C448.714 0.938165 448.904 1.43427 448.905 1.95172V186.715C448.904 187.232 448.714 187.729 448.376 188.094C448.037 188.46 447.578 188.666 447.1 188.667Z" fill="#F0F0F0"/>
<path d="M428.048 16.9153H290.872C290.393 16.9161 289.934 17.1219 289.596 17.4878C289.258 17.8536 289.067 18.3496 289.067 18.867V133.802C289.067 134.319 289.258 134.815 289.596 135.181C289.934 135.547 290.393 135.753 290.872 135.754H428.048C428.526 135.753 428.985 135.547 429.323 135.181C429.662 134.815 429.852 134.319 429.853 133.802V18.867C429.852 18.3496 429.662 17.8536 429.323 17.4878C428.985 17.1219 428.526 16.9161 428.048 16.9153Z" fill="white"/>
<path d="M420.226 158.307H298.693C298.427 158.306 298.172 158.192 297.984 157.989C297.796 157.785 297.69 157.51 297.69 157.222V151.15C297.69 150.863 297.796 150.587 297.984 150.384C298.172 150.181 298.427 150.066 298.693 150.066H420.226C420.492 150.066 420.747 150.181 420.935 150.384C421.123 150.587 421.229 150.863 421.229 151.15V157.222C421.229 157.51 421.123 157.785 420.935 157.989C420.747 158.192 420.492 158.306 420.226 158.307Z" fill="white"/>
<path d="M378.111 173.053H298.693C298.427 173.053 298.172 172.938 297.984 172.735C297.796 172.532 297.69 172.256 297.69 171.969V165.897C297.69 165.609 297.796 165.333 297.984 165.13C298.172 164.927 298.427 164.813 298.693 164.812H378.111C378.377 164.813 378.631 164.927 378.819 165.13C379.007 165.333 379.113 165.609 379.113 165.897V171.969C379.113 172.256 379.007 172.532 378.819 172.735C378.631 172.938 378.377 173.053 378.111 173.053Z" fill="white"/>
<path d="M393.224 135.754C393.998 132.739 394.6 130.141 394.909 128.302C395.004 127.735 395.014 127.155 394.937 126.585C393.782 117.698 372.917 110.186 370.241 109.258L369.595 101.52L343.331 98.4626L340.006 108.36L330.581 112.181C330.239 112.317 329.915 112.498 329.614 112.719C328.823 113.296 328.215 114.122 327.872 115.084C327.528 116.046 327.466 117.099 327.693 118.101L331.708 135.754H393.224V135.754Z" fill="#375F75"/>
<path d="M338.779 135.754H318.399C319.129 130.835 319.783 126.485 320.208 123.718C321.764 113.647 328.551 112.788 329.614 112.719C329.698 112.71 329.75 112.71 329.754 112.71H334.042L338.779 135.754Z" fill="#375F75"/>
<path d="M393.224 135.754H398.166C397.729 131.412 396.341 128.489 394.937 126.585C394 125.246 392.791 124.159 391.403 123.406L391.03 123.232L386.686 135.754H393.224Z" fill="#375F75"/>
<path d="M355.437 93.5653C365.881 93.5653 374.348 84.4103 374.348 73.117C374.348 61.8237 365.881 52.6687 355.437 52.6687C344.993 52.6687 336.527 61.8237 336.527 73.117C336.527 84.4103 344.993 93.5653 355.437 93.5653Z" fill="#A0616A"/>
<path d="M342.744 63.1547C344.702 65.6599 348.015 66.3664 351.071 66.6537C357.277 67.2425 366.302 66.2877 372.367 64.7737C372.803 69.3103 371.62 74.2021 374.091 77.9346C375.249 73.4163 375.923 68.7689 376.098 64.084C376.173 62.0747 376.144 59.9962 375.389 58.1518C374.634 56.3074 372.987 54.7416 371.091 54.7255C372.5 53.5701 374.15 52.8075 375.896 52.505L369.892 49.2422L371.434 47.5303L360.563 46.811L363.712 44.6484C358.971 43.9445 354.175 43.7814 349.403 44.1619C347.188 44.3382 344.871 44.6753 343.077 46.0635C341.282 47.4516 340.245 50.2098 341.359 52.2473C339.964 52.495 338.651 53.1237 337.543 54.0739C336.436 55.024 335.571 56.2642 335.031 57.6768C334.231 59.8704 334.304 62.3069 334.551 64.6445C334.96 68.383 335.764 72.0586 336.945 75.5998" fill="#2F2E41"/>
<path d="M315.5 305H140.219C139.741 304.999 139.282 304.794 138.944 304.428C138.605 304.062 138.415 303.566 138.414 303.048V118.285C138.415 117.768 138.605 117.271 138.944 116.906C139.282 116.54 139.741 116.334 140.219 116.333H315.5C315.978 116.334 316.437 116.54 316.776 116.906C317.114 117.271 317.304 117.768 317.305 118.285V303.048C317.304 303.566 317.114 304.062 316.776 304.428C316.437 304.794 315.978 304.999 315.5 305Z" fill="#E4E4E4"/>
<path d="M296.448 133.249H159.272C158.793 133.249 158.334 133.455 157.996 133.821C157.658 134.187 157.467 134.683 157.467 135.2V250.135C157.467 250.653 157.658 251.149 157.996 251.514C158.334 251.88 158.793 252.086 159.272 252.087H296.448C296.926 252.086 297.385 251.88 297.723 251.514C298.062 251.149 298.252 250.653 298.253 250.135V135.2C298.252 134.683 298.062 134.187 297.723 133.821C297.385 133.455 296.926 133.249 296.448 133.249Z" fill="white"/>
<path d="M288.626 274.64H167.093C166.827 274.639 166.572 274.525 166.384 274.322C166.196 274.119 166.091 273.843 166.09 273.556V267.483C166.091 267.196 166.196 266.92 166.384 266.717C166.572 266.514 166.827 266.4 167.093 266.399H288.626C288.892 266.4 289.147 266.514 289.335 266.717C289.523 266.92 289.629 267.196 289.629 267.483V273.556C289.629 273.843 289.523 274.119 289.335 274.322C289.147 274.525 288.892 274.639 288.626 274.64Z" fill="white"/>
<path d="M246.511 289.386H167.093C166.827 289.386 166.572 289.272 166.384 289.068C166.196 288.865 166.091 288.589 166.09 288.302V282.23C166.091 281.942 166.196 281.667 166.384 281.464C166.572 281.26 166.827 281.146 167.093 281.146H246.511C246.777 281.146 247.031 281.26 247.219 281.464C247.407 281.667 247.513 281.942 247.513 282.23V288.302C247.513 288.589 247.407 288.865 247.219 289.068C247.031 289.272 246.777 289.386 246.511 289.386Z" fill="white"/>
<path d="M241.357 252.087H213.749L215.47 224.164L225.429 226.65L235.116 222.62L235.372 222.516L235.388 222.508C235.392 222.516 235.395 222.525 235.396 222.534C235.549 223.197 238.589 236.36 241.357 252.087Z" fill="#375F75"/>
<path d="M257.994 228.723L255.415 252.087H232.148L235.116 222.621L235.144 222.334L235.373 222.516L235.396 222.533L241.136 227.062L257.994 228.723Z" fill="#2F2E41"/>
<path d="M217.832 252.087H196.995L196.694 233.693L212.028 228.194L215.47 224.164C215.47 224.164 216.557 236.287 217.832 252.087Z" fill="#2F2E41"/>
<path d="M268.026 252.087H250.758L251.865 235.35L257.994 228.723C257.994 228.723 262.844 239.722 268.026 252.087Z" fill="#2F2E41"/>
<path d="M201.909 252.087H192.8C192.84 246.726 192.864 243.022 192.864 241.977C192.818 240.361 193.144 238.758 193.813 237.313C194.481 235.867 195.471 234.623 196.694 233.693L201.295 235.35L201.909 252.087Z" fill="#2F2E41"/>
<path d="M200.487 195.422C200.501 190.88 201.606 186.42 203.692 182.478C205.778 178.535 208.775 175.246 212.389 172.932C220.068 168.031 229.332 168.119 237.806 173.175C243.843 176.777 248.755 185.841 248.755 193.38V215.378H200.487V195.422Z" fill="#2F2E41"/>
<path d="M232.028 212.525C240.476 207.531 243.581 196.077 238.963 186.942C234.344 177.806 223.752 174.449 215.303 179.443C206.855 184.437 203.75 195.891 208.368 205.026C212.986 214.162 223.579 217.519 232.028 212.525Z" fill="#FFB8B8"/>
<path d="M205.485 196.162C205.353 195.997 205.044 195.611 207.194 177.719L207.262 177.426H207.457C218.357 171.628 229.416 171.482 240.329 176.991C240.665 177.163 240.954 177.427 241.167 177.756C241.381 178.086 241.511 178.469 241.546 178.87C242.82 195.68 242.512 196.047 242.381 196.203C242.181 196.44 241.937 196.63 241.666 196.76C241.395 196.889 241.101 196.957 240.805 196.957H235.969L235.868 196.759C235.038 195.091 234.127 193.471 233.139 191.907C232.685 193.464 232.313 195.048 232.025 196.651L231.966 196.957H207.094C206.789 196.957 206.487 196.886 206.21 196.749C205.932 196.612 205.685 196.412 205.485 196.162Z" fill="#2F2E41"/>
</g>
<defs>
<clipPath id="clip0">
<rect width="448.76" height="305" fill="white" transform="translate(0.144348)"/>
</clipPath>
</defs>
</svg>
