<svg width="76" height="77" viewBox="0 0 76 77" fill="none" xmlns="http://www.w3.org/2000/svg">
<path d="M47.131 66.4405L47.1671 66.4339L47.2019 66.4222C58.6136 62.5682 66.3387 51.5576 66.3214 38.74C66.3211 22.6735 53.4632 10.4828 37.6268 10.4828C21.7733 10.4828 9.64464 22.6905 9.64464 38.7406C9.64464 51.5652 17.6137 62.553 29.0179 66.4219L29.0535 66.434L29.0906 66.4406C29.9251 66.5899 30.5841 66.417 31.0337 66.0023C31.468 65.6018 31.6295 65.046 31.6295 64.5734C31.6295 64.3236 31.6252 63.6783 31.6198 62.8445C31.6175 62.4953 31.615 62.113 31.6125 61.7129C31.604 60.355 31.5955 58.7881 31.5955 57.5953V56.9744L30.9891 57.1068L30.9891 57.1068L30.9889 57.1068L30.9887 57.1069L30.9857 57.1075L30.9715 57.1105C30.9583 57.1132 30.938 57.1174 30.9109 57.1226C30.8566 57.1332 30.7754 57.1485 30.6705 57.1662C30.4607 57.2018 30.1571 57.2475 29.7869 57.2869C29.0444 57.366 28.0447 57.4189 27.0018 57.3189C24.8889 57.1163 22.7825 56.3144 22.0545 54.056L22.0498 54.0415L22.0443 54.0274L21.5786 54.2094C22.0443 54.0274 22.0442 54.0273 22.0442 54.0272L22.0441 54.0269L22.0438 54.0261L22.0428 54.0236L22.0394 54.015L22.027 53.9841C22.0162 53.9577 22.0006 53.9196 21.9802 53.8713C21.9394 53.7748 21.8796 53.6373 21.8022 53.4702C21.6477 53.1366 21.4216 52.6817 21.1353 52.1975C20.5871 51.2703 19.757 50.1282 18.7128 49.6181C18.6978 49.6071 18.6777 49.5923 18.6536 49.5742C18.5947 49.5297 18.5129 49.4659 18.423 49.3897C18.2346 49.2301 18.0437 49.044 17.9351 48.882C17.9299 48.8742 17.925 48.8667 17.9205 48.8596C17.9328 48.8561 17.9465 48.8525 17.9616 48.8489C18.0971 48.8169 18.3067 48.7938 18.6165 48.7966L18.6203 48.797C18.6358 48.7987 18.661 48.8018 18.6949 48.8067C18.7627 48.8164 18.8649 48.8336 18.994 48.8623C19.1267 48.8918 19.2868 48.9333 19.4665 48.9913C19.46 49.0003 19.4537 49.0095 19.4475 49.0189L19.4243 49.0542L19.4073 49.0929C19.1856 49.5982 19.5538 50.0129 19.8771 50.1785C20.0554 50.2851 20.2667 50.3348 20.475 50.304C20.4792 50.3033 20.4834 50.3027 20.4876 50.302C20.4714 50.3905 20.4702 50.4787 20.4798 50.56C20.5065 50.7852 20.6137 50.9935 20.7537 51.1611L20.7747 51.1862L20.7988 51.2084C20.938 51.3367 21.1245 51.455 21.3383 51.5027C21.4456 51.5266 21.5686 51.5332 21.6927 51.5085C21.6039 51.6516 21.5663 51.8145 21.5663 51.9664C21.5663 52.2112 21.6585 52.4491 21.8012 52.6463C21.9453 52.8453 22.1383 52.9993 22.3495 53.0826C22.5459 53.16 22.8477 53.205 23.1138 53.0253L23.1223 53.0195L23.1305 53.0135C23.1451 53.0027 23.1592 52.9916 23.1727 52.9803C23.1584 52.9943 23.1443 53.009 23.1307 53.0245C22.9014 53.2545 22.8736 53.5631 22.9239 53.7983C22.9755 54.0397 23.1144 54.2639 23.3052 54.4359C23.4934 54.6218 23.7305 54.7534 23.9863 54.7868C24.2435 54.8204 24.5362 54.7512 24.7424 54.5179C24.8718 54.3876 24.9288 54.2329 24.9473 54.0873C25.0106 54.1251 25.0742 54.1615 25.138 54.1963C25.001 54.2921 24.8757 54.4326 24.8153 54.6313C24.7172 54.9545 24.8443 55.2479 25.006 55.4358C25.1635 55.6187 25.3864 55.7492 25.6324 55.8083C25.8708 55.8858 26.1267 55.8845 26.3497 55.8141C26.5707 55.7444 26.8355 55.5771 26.9376 55.2647C26.9952 55.1031 26.9937 54.9478 26.9581 54.8088C27.0406 54.8216 27.1229 54.8326 27.205 54.8419C27.122 54.9665 27.067 55.1179 27.067 55.2922C27.067 55.6019 27.2256 55.8618 27.4591 56.0211C27.6788 56.1709 27.949 56.2251 28.2178 56.2045C28.4684 56.2004 28.7123 56.1289 28.908 55.9901C29.0887 55.8619 29.2528 55.6537 29.2833 55.383C29.3733 55.6272 29.573 55.7851 29.758 55.8673C29.9835 55.9675 30.248 55.99 30.5018 55.9364C30.7475 55.8862 30.9829 55.7744 31.1566 55.5983C31.33 55.4226 31.4645 55.1514 31.4003 54.8379C31.3496 54.5491 31.1539 54.3605 30.9662 54.2538C31.1146 54.1941 31.2504 54.1352 31.3718 54.0795L31.6207 53.9654L31.6586 53.6942C31.8996 51.9689 32.5834 50.8107 33.2976 50.1624L34.117 49.4188L33.0174 49.2953C29.8543 48.9402 26.8391 48.5367 24.5958 46.9379C22.4038 45.3758 20.8571 42.5931 20.8571 37.2281C20.8571 35.7109 21.0626 34.608 21.4666 33.6523C21.8722 32.6927 22.4923 31.8469 23.3763 30.8583L23.5837 30.6263L23.4672 30.3378C23.1994 29.6746 22.3135 26.8799 23.6645 23.2175C24.092 23.1536 24.6668 23.2301 25.3531 23.4381C26.1481 23.679 27.0123 24.071 27.8204 24.4946C28.6258 24.9168 29.3611 25.3628 29.896 25.7041C30.163 25.8744 30.3792 26.0181 30.5281 26.1188C30.6025 26.1692 30.6601 26.2088 30.6988 26.2355L30.7423 26.2659L30.753 26.2733L30.7554 26.275L30.7559 26.2754L30.756 26.2754L30.9512 26.4135L31.1812 26.3482C33.374 25.7254 35.7538 25.4047 38.1018 25.4047C40.4498 25.4047 42.8296 25.7254 45.0223 26.3482L45.2524 26.4135L45.4476 26.2754L45.4477 26.2754L45.4482 26.275L45.4506 26.2733L45.4613 26.2659L45.5048 26.2355C45.5434 26.2088 45.601 26.1692 45.6755 26.1188C45.8244 26.0181 46.0406 25.8744 46.3076 25.7041C46.8424 25.3628 47.5778 24.9168 48.3832 24.4946C49.1912 24.071 50.0555 23.679 50.8505 23.4381C51.5365 23.2301 52.1112 23.1536 52.5386 23.2174C53.8888 26.8946 52.9891 29.6902 52.7342 30.3432L52.6226 30.6294L52.8273 30.8583C53.7217 31.8586 54.4066 32.7088 54.8748 33.6755C55.3377 34.6316 55.6009 35.7283 55.6009 37.2281C55.6009 42.6116 53.9871 45.394 51.7246 46.9527C49.4073 48.5492 46.3172 48.94 43.1523 49.2953L42.0155 49.4229L42.8812 50.1706C43.781 50.9477 44.625 52.496 44.625 55.0687C44.625 56.9839 44.6165 59.1271 44.608 60.908C44.6052 61.513 44.6023 62.0767 44.5997 62.5753C44.5948 63.543 44.5911 64.2662 44.5911 64.5734C44.5911 65.0503 44.7594 65.605 45.1944 66.0035C45.6447 66.4159 46.3024 66.5904 47.131 66.4405ZM22.2195 51.1337C22.2358 51.1062 22.25 51.0782 22.2623 51.0497C22.2782 51.0726 22.2939 51.0956 22.3096 51.1189C22.2796 51.1221 22.2495 51.1269 22.2195 51.1337ZM23.2179 52.9394C23.2854 52.8735 23.3378 52.7995 23.3771 52.7216C23.4004 52.7497 23.4238 52.7774 23.4472 52.8047C23.3664 52.8357 23.2887 52.8799 23.2179 52.9394ZM29.238 55.0073C29.2069 54.923 29.1631 54.8472 29.1115 54.7803C29.1767 54.7695 29.2412 54.7579 29.305 54.7458C29.2702 54.8258 29.2468 54.9131 29.238 55.0073ZM8.14286 0.5H67.8571C72.0704 0.5 75.5 3.96527 75.5 8.25V68.75C75.5 73.0347 72.0704 76.5 67.8571 76.5H8.14286C3.92961 76.5 0.5 73.0347 0.5 68.75V8.25C0.5 3.96527 3.92961 0.5 8.14286 0.5Z" fill="#375F75" stroke="#375F75"/>
</svg>
