<svg width="80" height="75" viewBox="0 0 80 75" fill="none" xmlns="http://www.w3.org/2000/svg">
<path d="M33.084 17.0625C29.4851 26.375 26.3632 34.5625 26.2331 35.125C25.9296 36.1875 26.7534 36.25 39.8916 36.25C53.0298 36.25 53.8537 36.1875 53.5502 35.125C53.0732 33.3125 40.1084 0 39.8916 0C39.7615 0 36.7263 7.6875 33.084 17.0625Z" fill="black"/>
<path d="M0 48.5625C0 49.1875 10.1463 74.9375 10.4065 75C10.6667 75 20.813 49.1875 20.813 48.5625C20.813 48.3125 20.0325 48.125 19.122 48.125C17.1274 48.125 17.0406 48.3125 13.2683 57.9375C11.8808 61.5 10.5799 64.375 10.4065 64.375C10.2331 64.375 8.93225 61.5 7.54471 57.9375C3.77236 48.3125 3.68564 48.125 1.69106 48.125C0.780488 48.125 0 48.3125 0 48.5625Z" fill="black"/>
<path d="M76.748 61.25V74.4375L78.3957 74.25L80.0001 74.0625V61.25V48.4375L78.3957 48.25L76.748 48.0625V61.25Z" fill="black"/>
<path d="M22.7642 55.2497C18.3415 57.6248 16.8238 65.5624 19.8157 70.625C22.5908 75.4376 27.8807 76.1876 31.0461 72.3125L32.2168 70.875L30.7425 69.5625C29.4851 68.3749 29.2249 68.3124 28.4444 69.125C26.9702 70.5625 24.1518 70.25 22.981 68.4374L21.9837 66.9374L27.3604 66.7499L32.7371 66.5624L32.8672 64.6874C33.0406 62.1248 31.3062 57.4373 29.6585 56.1247C27.7507 54.5622 24.8455 54.1872 22.7642 55.2497ZM28.3144 60.7498L29.2683 62.1873L25.8428 62.3748C23.9783 62.4998 22.3306 62.3748 22.1572 62.1873C22.0271 61.9373 22.374 61.2498 22.9377 60.5623C24.3686 58.8748 27.0569 58.9998 28.3144 60.7498Z" fill="black"/>
<path d="M49.8645 54.9377C46.6558 56.3752 44.9647 59.7502 44.9647 64.6876C44.9647 70.1251 47.046 73.6251 50.8184 74.6251C52.9864 75.1876 55.6748 74.0626 57.3225 71.9376L58.6666 70.2501L57.1924 68.9376C55.8048 67.6251 55.7615 67.6251 54.7208 68.8126C53.5067 70.1876 50.8184 70.3751 49.7344 69.1876C48.0867 67.5001 48.0867 61.8751 49.7344 60.1877C50.8184 59.0002 53.5067 59.1877 54.7208 60.5626C55.7615 61.7501 55.8048 61.7501 57.1924 60.4376L58.6666 59.1252L57.3225 57.4377C55.2845 54.8127 52.3794 53.8752 49.8645 54.9377Z" fill="black"/>
<path d="M64.5637 55.0617C63.6965 55.4367 62.3523 56.6867 61.5285 57.8742C60.271 59.7492 60.0976 60.4992 59.9241 63.9367C59.7073 69.8117 61.4851 73.1242 65.561 74.4992C67.729 75.1867 70.8076 74.3117 72.4119 72.4367L73.4959 71.2492L72.4553 69.9367C71.7182 69.0617 71.0678 68.8117 70.5041 69.1242C68.3794 70.1242 65.8645 70.1242 64.8238 69.1242C62.8726 67.2492 63.5664 66.8742 68.9431 66.8742H74.1463V64.1242C74.1463 57.6867 69.3333 53.1867 64.5637 55.0617ZM69.4634 60.4367C69.897 60.9992 70.2439 61.6867 70.2439 61.9992C70.2439 62.2492 68.6396 62.4992 66.6883 62.4992H63.1762L64.1734 60.9367C65.3875 59.0617 68.206 58.7492 69.4634 60.4367Z" fill="black"/>
<path d="M35.1219 64.6875V74.375H36.813H38.5041L38.6775 68.6875C38.8076 63.625 38.9377 62.875 39.8482 61.8125C40.4119 61.1875 41.4959 60.625 42.3198 60.625C43.794 60.625 43.794 60.5625 43.794 57.8125C43.794 56.25 43.5772 55 43.3604 55C42.4499 55 39.6748 56.9375 39.1545 57.9375C38.6775 58.875 38.5908 58.75 38.5908 57C38.5908 55.0625 38.5041 55 36.8564 55H35.1219V64.6875Z" fill="black"/>
</svg>
