<svg width="80" height="77" viewBox="0 0 80 77" fill="none" xmlns="http://www.w3.org/2000/svg">
<path d="M65.3438 24.9528C64.5 24.6434 63.6562 24.3512 62.8125 24.0763C62.9531 23.4403 63.0781 22.8044 63.2031 22.1685C65.125 11.9253 63.8594 3.69297 59.5938 0.977486C55.4844 -1.61769 48.7812 1.08061 42 7.57713C41.3281 8.21304 40.6719 8.88331 40.0469 9.55359C39.625 9.10674 39.1875 8.65989 38.75 8.23022C31.6406 1.28684 24.5156 -1.63487 20.25 1.09779C16.1562 3.71015 14.9375 11.4613 16.6562 21.1545C16.8281 22.117 17.0156 23.0622 17.2344 24.0247C16.2344 24.3341 15.25 24.6778 14.3281 25.0387C5.98437 28.2182 0 33.2367 0 38.427C0 43.7893 6.375 49.1687 15.0469 52.4341C15.75 52.6919 16.4531 52.9497 17.1719 53.1731C16.9375 54.2043 16.7344 55.2183 16.5469 56.2667C14.9062 65.8053 16.1875 73.3674 20.2812 75.9625C24.5 78.6436 31.5937 75.8938 38.5 69.2426C39.0469 68.7098 39.5938 68.1598 40.1406 67.5755C40.8281 68.3145 41.5469 69.0192 42.2656 69.7066C48.9531 76.0313 55.5625 78.5921 59.6406 75.9969C63.8594 73.3158 65.2344 65.1866 63.4531 55.2871C63.3125 54.5309 63.1562 53.7575 62.9844 52.9669C63.4844 52.8122 63.9688 52.6403 64.4531 52.4685C73.4688 49.1858 80 43.8752 80 38.427C80 33.2195 73.8438 28.1667 65.3438 24.9528ZM44.2031 10.3614C50.0156 4.79291 55.4375 2.61021 57.9062 4.17419C60.5469 5.84129 61.5625 12.5784 59.9062 21.4295C59.7969 22.0139 59.6875 22.581 59.5469 23.1482C56.0781 22.2888 52.5625 21.6701 49.0312 21.3264C47 18.1297 44.7812 15.0705 42.375 12.2003C42.9844 11.5644 43.5781 10.9629 44.2031 10.3614ZM26.125 47.3469C26.9219 48.8421 27.7344 50.3373 28.5938 51.7982C26.1562 51.506 23.7344 51.0764 21.3438 50.5092C22.0313 48.0343 22.8906 45.4735 23.8906 42.8612C24.6094 44.3736 25.3438 45.8688 26.125 47.3469ZM21.3906 26.6714C23.6406 26.1215 26.0312 25.6746 28.5156 25.3309C27.6875 26.7574 26.875 28.2182 26.1094 29.6963C25.3438 31.1571 24.5938 32.6524 23.8906 34.1648C22.9062 31.604 22.0781 29.0947 21.3906 26.6714ZM25.6719 38.513C26.7031 36.1412 27.8281 33.821 29.0156 31.5352C30.2031 29.2494 31.4844 27.0323 32.8281 24.8496C35.1719 24.6606 37.5625 24.5575 40 24.5575C42.4375 24.5575 44.8438 24.6606 47.1719 24.8496C48.5 27.0152 49.7656 29.2322 50.9688 31.5009C52.1719 33.7695 53.2969 36.0897 54.3594 38.4442C53.3125 40.816 52.1875 43.1534 50.9844 45.4564C49.7969 47.7422 48.5312 49.9592 47.2031 52.1591C44.875 52.3482 42.4531 52.4341 40 52.4341C37.5469 52.4341 35.1719 52.3482 32.875 52.1935C31.5156 50.0108 30.2344 47.7766 29.0312 45.4907C27.8281 43.2049 26.7188 40.8847 25.6719 38.513ZM53.8906 47.3125C54.6875 45.8001 55.4375 44.2705 56.1719 42.7237C57.1719 45.2157 58.0469 47.7422 58.8125 50.3373C56.3906 50.9389 53.9375 51.4029 51.4688 51.7123C52.3125 50.2686 53.1094 48.7906 53.8906 47.3125ZM56.1406 34.1648C55.4062 32.6524 54.6562 31.1399 53.875 29.6619C53.1094 28.201 52.3125 26.7574 51.4844 25.3309C54 25.6746 56.4062 26.1386 58.6562 26.7058C57.9375 29.2494 57.0937 31.7243 56.1406 34.1648ZM40.0312 14.8299C41.6719 16.7891 43.2188 18.8515 44.6562 20.9827C41.5625 20.828 38.4531 20.828 35.3594 20.9827C36.8906 18.7656 38.4688 16.7032 40.0312 14.8299ZM21.9062 4.2945C24.5312 2.61021 30.3594 5.01633 36.5 10.9973C36.8906 11.3754 37.2812 11.7878 37.6875 12.2003C35.2656 15.0705 33.0312 18.1297 30.9844 21.3264C27.4531 21.6701 23.9531 22.2717 20.4844 23.1138C20.2813 22.2373 20.1094 21.3436 19.9375 20.4499C18.4688 12.1316 19.4375 5.85848 21.9062 4.2945ZM18.0781 49.5983C17.4219 49.3921 16.7812 49.1687 16.1406 48.9281C12.8125 47.7766 9.03125 45.9548 6.29688 43.5658C4.71875 42.3628 3.65625 40.5066 3.35938 38.427C3.35938 35.2819 8.29688 31.2602 15.4219 28.5276C16.3125 28.1838 17.2188 27.8745 18.125 27.5823C19.1875 31.3118 20.4688 34.9725 21.9531 38.513C20.4531 42.105 19.1562 45.8173 18.0781 49.5983ZM36.2969 66.4412C33.7188 69.0364 30.7344 71.0987 27.4844 72.508C25.75 73.4189 23.75 73.5049 21.9688 72.7315C19.4844 71.1503 18.4531 65.0834 19.8594 56.9198C20.0312 55.9574 20.2188 54.9949 20.4375 54.0497C23.9375 54.8746 27.4688 55.4418 31.0469 55.7339C33.1094 58.9478 35.375 62.0242 37.7969 64.9116C37.2969 65.4444 36.7969 65.96 36.2969 66.4412ZM40.125 62.2648C38.5312 60.3743 36.9375 58.2775 35.3906 56.0261C36.8906 56.0949 38.4375 56.1292 40 56.1292C41.6094 56.1292 43.1875 56.0949 44.75 56.0089C43.3125 58.1916 41.7656 60.2712 40.125 62.2648ZM60.5469 67.4208C60.4062 69.5176 59.4688 71.4768 57.9688 72.8002C55.4844 74.3814 50.1875 72.319 44.4688 66.9224C43.8125 66.3037 43.1562 65.6334 42.4844 64.9459C44.875 62.0414 47.0781 58.965 49.0781 55.7339C52.6562 55.4074 56.2188 54.8059 59.7344 53.9293C59.8906 54.634 60.0312 55.3386 60.1562 56.0261C60.9219 59.7384 61.0469 63.6054 60.5469 67.4208ZM63.3906 48.9452C62.9531 49.0999 62.5156 49.2546 62.0625 49.3921C60.9688 45.6454 59.625 41.9847 58.0781 38.427C59.5781 34.921 60.8438 31.3118 61.9062 27.6167C62.7188 27.8745 63.5 28.1495 64.25 28.4245C71.5312 31.1743 76.6406 35.2647 76.6406 38.3927C76.6406 41.7612 71.1875 46.1094 63.3906 48.9452ZM40 46.3672C43.9531 46.3672 47.1562 42.844 47.1562 38.4958C47.1562 34.1476 43.9531 30.6243 40 30.6243C36.0469 30.6243 32.8438 34.1476 32.8438 38.4958C32.8438 42.844 36.0469 46.3672 40 46.3672Z" fill="black"/>
</svg>
