<svg width="80" height="77" viewBox="0 0 80 77" fill="none" xmlns="http://www.w3.org/2000/svg">
<path d="M71.4286 0H8.57143C3.83929 0 0 3.69531 0 8.25V68.75C0 73.3047 3.83929 77 8.57143 77H71.4286C76.1607 77 80 73.3047 80 68.75V8.25C80 3.69531 76.1607 0 71.4286 0ZM43.5357 60.0531C43.5357 67.5469 38.9643 70.9672 32.3036 70.9672C26.2857 70.9672 22.8036 67.9766 21.0179 64.35L27.1429 60.7922C28.3214 62.8031 29.3929 64.5047 31.9821 64.5047C34.4464 64.5047 36.0179 63.5766 36.0179 59.95V35.3547H43.5357V60.0531ZM61.3214 70.9672C54.3393 70.9672 49.8214 67.7703 47.625 63.5766L53.75 60.1734C55.3571 62.7 57.4643 64.5734 61.1607 64.5734C64.2679 64.5734 66.2679 63.0781 66.2679 60.9984C66.2679 58.5234 64.2321 57.6469 60.7857 56.1859L58.9107 55.4125C53.4821 53.1953 49.8929 50.3937 49.8929 44.4984C49.8929 39.0672 54.1964 34.9422 60.8929 34.9422C65.6786 34.9422 69.1071 36.5406 71.5714 40.7344L65.7143 44.3438C64.4286 42.1266 63.0357 41.25 60.875 41.25C58.6786 41.25 57.2857 42.5906 57.2857 44.3438C57.2857 46.5094 58.6786 47.3859 61.9107 48.7438L63.7857 49.5172C70.1786 52.1469 73.7679 54.8453 73.7679 60.8953C73.7679 67.3922 68.4464 70.9672 61.3214 70.9672Z" fill="black"/>
</svg>
