<svg width="80" height="77" viewBox="0 0 80 77" fill="none" xmlns="http://www.w3.org/2000/svg">
<path d="M80 11V17.875C80 23.9336 62.0834 28.875 40 28.875C17.9166 28.875 0 23.9336 0 17.875V11C0 4.94138 17.9166 0 40 0C62.0834 0 80 4.94138 80 11ZM80 26.4688V41.9375C80 47.9961 62.0834 52.9375 40 52.9375C17.9166 52.9375 0 47.9961 0 41.9375V26.4688C8.59375 31.4531 24.3229 33.7735 40 33.7735C55.6771 33.7735 71.4061 31.4531 80 26.4688ZM80 50.5312V66C80 72.0586 62.0834 77 40 77C17.9166 77 0 72.0586 0 66V50.5312C8.59375 55.5156 24.3229 57.836 40 57.836C55.6771 57.836 71.4061 55.5156 80 50.5312Z" fill="black"/>
<path d="M52.5977 37.41C50.8322 38.1619 49.2138 38.8951 49.0299 39.0079C48.7172 39.2146 48.6989 39.4026 48.8092 41.4329L48.9195 43.6323L48.1471 44.4031L47.3563 45.1926L45.3701 45.0234C44.2851 44.9294 43.2736 44.8918 43.1448 44.9482C43.0161 45.0046 42.2621 46.6965 41.4529 48.7268L40 52.3925L41.6184 53.934L43.2184 55.4567V56.5846L43.2 57.7125L41.6552 59.0849C40.7908 59.8368 40.092 60.5699 40.092 60.7203C40.092 61.0211 42.777 67.5443 43.0345 67.8638C43.1448 68.0142 43.8621 68.0518 45.3333 67.9954L47.4851 67.9014L48.2023 68.6346L48.9379 69.3677L48.8092 71.6424L48.6805 73.917L49.8575 74.4058C50.5011 74.6878 52.1563 75.3833 53.5172 75.9473L56 76.9812L57.5632 75.2893L59.1264 73.5974H60.1379H61.1678L62.1977 74.8757C62.7678 75.5713 63.4483 76.342 63.6874 76.5676L64.1471 77L67.5126 75.5525C69.3701 74.763 71.0069 74.0298 71.154 73.8982C71.3563 73.729 71.3931 73.2591 71.3011 71.5108L71.1908 69.3301L71.9632 68.5594L72.7356 67.7886L74.8322 67.9766C75.9908 68.0706 77.0023 68.0894 77.0759 68.0142C77.2598 67.8262 80 60.9459 80 60.6827C80 60.5699 79.3011 59.818 78.4368 59.0285L76.8736 57.581V56.4154L76.892 55.2687L78.4368 53.8964C79.3011 53.1445 80 52.4113 80 52.2609C80 51.9226 77.3149 45.3994 77.0575 45.1362C76.9287 45.0046 76.0644 44.967 74.7402 45.0046L72.6069 45.061L71.8713 44.3279L71.154 43.6135L71.2828 41.3389L71.4115 39.083L70.5103 38.6883C67.4575 37.3536 64.5149 36.1881 64.2207 36.1881C64 36.1881 63.2828 36.8272 62.4368 37.7859L61.0207 39.3838H59.9908L58.9425 39.365L57.508 37.6919C56.7172 36.752 56.0184 36.0001 55.9448 36.0001C55.8713 36.0189 54.3632 36.6392 52.5977 37.41ZM57.1218 39.0079L58.354 40.5117H59.9724H61.5724L62.9701 38.9703L64.3494 37.4288L67.292 38.6319L70.2345 39.835L70.1609 40.6057C70.1241 41.0193 70.0322 41.9592 69.977 42.6736L69.8851 44.0083L71.0069 45.1174L72.1103 46.2453H74.2253H76.3402L77.4437 48.8772C78.0322 50.3247 78.5655 51.6406 78.6207 51.8098C78.6943 52.0165 78.2345 52.5429 77.1494 53.4828L75.5862 54.8363V56.3966V57.9569L77.1494 59.442L78.731 60.9083L77.554 63.8221L76.377 66.7359L74.2989 66.6795L72.2391 66.6043L71.1356 67.7134L70.0506 68.8038L70.1057 70.9656L70.1609 73.1087L67.2736 74.3682L64.3678 75.6277L63.0437 74.0486L61.7195 72.4695H60.1195H58.5195L57.1402 74.011L55.7425 75.5713L52.8 74.3494L49.8575 73.1275L49.931 72.4695C49.9678 72.1123 50.0598 71.1724 50.1149 70.4017L50.2069 68.9918L49.1034 67.8638L47.9816 66.7359H45.8667H43.7517L42.6483 64.1041C42.0598 62.6566 41.5264 61.3407 41.4713 61.1715C41.3977 60.9647 41.8575 60.4384 42.9425 59.4984L44.5057 58.1449V56.5846V55.0243L42.9425 53.5392L41.3609 52.0729L42.5379 49.1591L43.7149 46.2453L45.7931 46.3017L47.8529 46.3769L48.9563 45.2678L50.0414 44.1775L50.0046 42.0156L49.9494 39.8726L52.8 38.6131C54.3632 37.9363 55.6874 37.41 55.7609 37.4476C55.8161 37.4664 56.423 38.1807 57.1218 39.0079Z" fill="#FFCD00"/>
<path d="M57.0851 43.7823C53.4989 44.8162 50.8874 46.8277 49.1219 49.8731C46.8046 53.896 46.8046 58.9716 49.1403 63.0321C50.0046 64.536 52.2667 66.8107 53.7196 67.6378C57.8391 69.9877 62.5288 69.9501 66.5196 67.5626C67.8621 66.7543 70.1609 64.4044 70.9518 63.0321C71.2828 62.4494 71.7793 61.3591 72.0552 60.5883C72.515 59.3288 72.5518 58.9904 72.5518 56.3962C72.5518 53.708 72.515 53.5012 71.9632 52.0537C70.5472 48.2376 67.9357 45.6058 64.1472 44.1583C62.9885 43.7259 62.4736 43.6319 60.4138 43.5943C58.7403 43.5379 57.7472 43.5943 57.0851 43.7823ZM62.7862 45.023C64.8828 45.5682 66.6299 46.5833 68.138 48.1248C71.7058 51.7717 72.5518 57.0542 70.2897 61.7538C69.3518 63.7089 67.2 65.9083 65.2874 66.8671C61.8851 68.5778 58.2069 68.5778 54.8046 66.8671C52.8736 65.9083 50.7403 63.7089 49.7839 61.735C47.5587 57.1106 48.423 51.7341 51.9541 48.1248C54.823 45.1922 58.9242 44.0079 62.7862 45.023Z" fill="#FFCD00"/>
<path d="M52.4138 56.0396C51.6598 58.051 51.0529 59.7617 51.0713 59.8369C51.108 59.9121 51.4207 59.9873 51.7701 60.0249C52.4138 60.0813 52.4506 60.0437 52.8368 59.1414L53.223 58.1826H54.6759H56.1103L56.4965 59.1226C56.8644 60.0061 56.9195 60.0625 57.5632 60.0625C57.931 60.0625 58.2804 60.0061 58.3356 59.9497C58.3908 59.8933 57.7839 58.1638 56.9747 56.096L55.5034 52.355H54.6391H53.7931L52.4138 56.0396ZM55.5402 56.6975C55.5402 56.7915 55.1356 56.8667 54.6207 56.8667C54.1241 56.8667 53.7011 56.8291 53.7011 56.7915C53.7011 56.7163 54.1241 55.4944 54.4368 54.7049L54.6575 54.1409L55.0988 55.344C55.3379 56.002 55.5402 56.6035 55.5402 56.6975Z" fill="#FFCD00"/>
<path d="M59.2552 56.1521L59.3103 59.9683H60.046H60.7816L60.8368 58.502L60.8919 57.0545H62.1241C63.6138 57.0545 64.4414 56.6221 64.846 55.607C65.3241 54.4602 64.8644 53.0315 63.8896 52.5804C63.6322 52.4488 62.5287 52.3548 61.3149 52.3548H59.2184L59.2552 56.1521ZM63.154 53.9715C63.5402 54.3475 63.5218 54.9678 63.1356 55.4002C62.9149 55.6446 62.5839 55.7386 61.8483 55.7386H60.8736V54.7046V53.6707H61.8667C62.5287 53.6707 62.9701 53.7647 63.154 53.9715Z" fill="#FFCD00"/>
<path d="M66.2436 56.1521L66.2988 59.9683L66.9977 60.0247L67.6781 60.0811V56.2273V52.3548H66.9425H66.2069L66.2436 56.1521Z" fill="#FFCD00"/>
</svg>
