<svg width="80" height="75" viewBox="0 0 80 75" fill="none" xmlns="http://www.w3.org/2000/svg">
<path d="M57.9786 26.027L57.9494 26.0152C57.9327 26.0094 57.916 26.0035 57.9014 25.9898C57.8528 25.9409 57.8312 25.8737 57.8429 25.8079L59.4575 16.5637L67.0291 23.6563L59.1546 26.7937C59.1327 26.802 59.1093 26.806 59.0857 26.8055H59.0543C59.0439 26.7996 59.0334 26.7918 59.0126 26.7722C58.7195 26.4666 58.3691 26.214 57.9786 26.027ZM68.9611 25.4636L77.057 33.0452C78.7384 34.6217 79.5802 35.408 79.8872 36.3195C79.9332 36.4545 79.9708 36.5895 80 36.7283L60.6522 29.0549C60.6418 29.0509 60.6314 29.0469 60.6209 29.0431C60.5436 29.0138 60.4538 28.9805 60.4538 28.9062C60.4538 28.8319 60.5457 28.7967 60.623 28.7673L60.648 28.7576L68.9611 25.4636ZM79.67 39.1616C79.2522 39.8971 78.4376 40.66 77.0591 41.9529L67.9314 50.4987L56.1259 48.1965L56.0633 48.1848C55.9589 48.1691 55.8482 48.1515 55.8482 48.0635C55.7575 47.1416 55.262 46.2964 54.48 45.73C54.432 45.685 54.4445 45.6146 54.4592 45.55C54.4592 45.5402 54.4592 45.5304 54.4633 45.5226L56.6836 32.7576L56.692 32.7146C56.7045 32.6168 56.7233 32.5033 56.8173 32.5033C57.7785 32.3914 58.6514 31.9227 59.2402 31.2026C59.259 31.183 59.2716 31.1615 59.2966 31.1498C59.3635 31.1204 59.4428 31.1498 59.5118 31.1772L79.6679 39.1616H79.67ZM65.8322 52.4645L50.8227 66.5205L53.3918 51.733L53.396 51.7134C53.3981 51.6939 53.4023 51.6743 53.4085 51.6567C53.4294 51.6098 53.4837 51.5902 53.5359 51.5706L53.561 51.5609C54.1235 51.3361 54.6211 50.9895 55.0127 50.5496C55.0628 50.4948 55.1234 50.442 55.2006 50.4322C55.2207 50.4292 55.2412 50.4292 55.2612 50.4322L65.8301 52.4665L65.8322 52.4645ZM47.6458 69.4956L45.9539 71.08L27.2494 45.7652C27.2427 45.7559 27.2357 45.7468 27.2285 45.7378C27.1993 45.7006 27.168 45.6635 27.1742 45.6204C27.1763 45.5891 27.1972 45.5617 27.2202 45.5383L27.2411 45.5128C27.2975 45.4346 27.3455 45.3564 27.3977 45.2723L27.4395 45.2038L27.4458 45.1979C27.475 45.151 27.5022 45.106 27.5523 45.0806C27.5961 45.061 27.6567 45.0688 27.7048 45.0786L48.4269 49.0806C48.4849 49.0891 48.5395 49.1113 48.5857 49.1452C48.6128 49.1706 48.6191 49.198 48.6254 49.2293C48.9184 50.2675 49.7127 51.1177 50.7726 51.5276C50.8311 51.555 50.806 51.6156 50.7788 51.6802C50.7653 51.7085 50.7548 51.738 50.7475 51.7682C50.4864 53.2548 48.2473 66.0432 47.6458 69.4956ZM44.1116 72.8033C42.8647 73.9593 42.1294 74.5715 41.2981 74.818C40.4785 75.0607 39.5988 75.0607 38.7791 74.818C37.8058 74.5285 36.964 73.7421 35.2826 72.1656L16.4988 54.5751L21.4052 47.4493C21.4282 47.4141 21.4511 47.3828 21.4887 47.3574C21.541 47.3222 21.6161 47.3378 21.6788 47.3574C22.805 47.6755 24.0141 47.6182 25.1001 47.195C25.1565 47.1755 25.2129 47.1618 25.2568 47.1989C25.2787 47.2177 25.2983 47.2387 25.3153 47.2615L44.1116 72.8052V72.8033ZM14.6879 52.8792L10.3788 48.8439L18.8883 45.4444C18.91 45.4355 18.9335 45.4308 18.9572 45.4307C19.0282 45.4307 19.07 45.4972 19.1076 45.5578C19.1931 45.681 19.2837 45.8011 19.3791 45.9177L19.4063 45.949C19.4313 45.9823 19.4146 46.0155 19.3896 46.0468L14.69 52.8792H14.6879ZM8.47184 47.0581L3.02029 41.9529C2.0929 41.0844 1.42033 40.4546 0.952456 39.9128L17.5285 43.1324C17.5493 43.136 17.5702 43.1392 17.5912 43.1421C17.6935 43.1578 17.8063 43.1754 17.8063 43.2654C17.8063 43.3632 17.6831 43.4082 17.5787 43.4453L17.5306 43.4649L8.47184 47.0581ZM0 37.2878C0.0188907 36.9589 0.0820519 36.6336 0.187985 36.3195C0.497115 35.408 1.33678 34.6217 3.02029 33.0452L9.99661 26.512C13.2087 30.8777 16.4295 35.2376 19.659 39.592C19.7154 39.6624 19.7781 39.7406 19.7133 39.7993C19.4084 40.1142 19.1034 40.4585 18.8883 40.8321C18.8649 40.8801 18.829 40.9218 18.7838 40.9534C18.7567 40.969 18.7274 40.9631 18.6961 40.9573H18.6919L0 37.2858V37.2878ZM11.8639 24.7634L21.2444 15.9789C22.1258 16.3407 25.3341 17.6102 28.204 18.7447C30.3762 19.6053 32.3563 20.3877 32.9788 20.642C33.0414 20.6655 33.0978 20.689 33.125 20.7477C33.1417 20.7829 33.1333 20.8278 33.125 20.865C32.8234 22.1531 33.2339 23.4969 34.2174 24.4406C34.28 24.4993 34.2174 24.5834 34.1631 24.6558L34.1338 24.6969L24.6093 38.5122C24.5842 38.5514 24.5612 38.5846 24.5195 38.61C24.4693 38.6394 24.3983 38.6257 24.3398 38.612C23.9694 38.5211 23.5886 38.4725 23.2057 38.4673C22.8631 38.4673 22.4913 38.5259 22.1153 38.5905H22.1133C22.0715 38.5964 22.0339 38.6042 22.0005 38.5807C21.9636 38.5525 21.9318 38.5188 21.9065 38.4809L11.8639 24.7634ZM23.1388 14.2048L35.2826 2.83245C36.964 1.25785 37.8058 0.469577 38.7791 0.182042C39.5988 -0.0606808 40.4785 -0.0606808 41.2981 0.182042C42.2715 0.469577 43.1132 1.25785 44.7947 2.83245L47.4264 5.29704L38.7896 17.8234C38.7682 17.8599 38.7391 17.8918 38.7039 17.9173C38.6517 17.9505 38.5786 17.9368 38.516 17.9173C37.1335 17.5244 35.6332 17.7952 34.5056 18.641C34.4492 18.6958 34.3657 18.6645 34.2947 18.6352C33.1668 18.1755 24.3941 14.7035 23.1388 14.2048ZM49.2603 7.01443L57.2351 14.4825L55.3134 25.6279V25.6573C55.3117 25.6827 55.3061 25.7077 55.2967 25.7316C55.2758 25.7707 55.2341 25.7785 55.1923 25.7903C54.7814 25.9068 54.3945 26.0873 54.0477 26.3243C54.0328 26.3342 54.0188 26.3453 54.0059 26.3575C53.9829 26.381 53.9599 26.4025 53.9224 26.4064C53.8918 26.4073 53.8613 26.4027 53.8325 26.3927L41.6804 21.5574L41.6574 21.5477C41.5801 21.5183 41.4882 21.4831 41.4882 21.4088C41.4168 20.7746 41.1956 20.1633 40.8407 19.619C40.7822 19.5291 40.7175 19.4352 40.7676 19.3432L49.2603 7.01443ZM41.0475 23.8479L52.4394 28.3664C52.502 28.3937 52.5709 28.4192 52.5981 28.4798C52.609 28.5163 52.609 28.5548 52.5981 28.5913C52.5647 28.7478 52.5354 28.9258 52.5354 29.1057V29.405C52.5354 29.4793 52.454 29.5106 52.3788 29.54L52.3558 29.5478C50.5512 30.2696 27.0197 39.6663 26.9842 39.6663C26.9486 39.6663 26.911 39.6663 26.8755 39.633C26.8129 39.5744 26.8755 39.4922 26.9319 39.4179C26.9419 39.405 26.9517 39.3919 26.9612 39.3788L36.3228 25.804L36.3395 25.7805C36.3938 25.6983 36.4565 25.6064 36.5567 25.6064L36.6507 25.6201C36.8638 25.6475 37.0518 25.6729 37.2418 25.6729C38.6622 25.6729 39.9781 25.0255 40.7718 23.9184C40.7907 23.8888 40.8147 23.8624 40.8428 23.8401C40.8992 23.801 40.9827 23.8206 41.0475 23.8479ZM28.0014 41.814L53.6508 31.5703C53.6508 31.5703 53.6884 31.5703 53.7239 31.6036C53.8639 31.7346 53.9829 31.8226 54.0978 31.9048L54.1542 31.9381C54.2064 31.9654 54.2586 31.9967 54.2628 32.0476C54.2628 32.0672 54.2628 32.0789 54.2586 32.0965L52.0613 44.7363L52.053 44.7872C52.0383 44.885 52.0237 44.9965 51.9255 44.9965C50.7362 45.0716 49.6631 45.6916 49.0577 46.6532L49.0473 46.6688C49.018 46.7138 48.9909 46.7569 48.9428 46.7803C48.899 46.7999 48.8426 46.7921 48.7966 46.7823L28.3418 42.8311C28.3209 42.8272 28.0243 41.816 28.0014 41.814Z" fill="url(#paint0_radial)"/>
<defs>
<radialGradient id="paint0_radial" cx="0" cy="0" r="1" gradientUnits="userSpaceOnUse" gradientTransform="translate(40 -37.5) scale(79.9999 74.9999)">
<stop/>
<stop offset="1"/>
</radialGradient>
</defs>
</svg>
