<svg width="80" height="75" viewBox="0 0 80 75" fill="none" xmlns="http://www.w3.org/2000/svg">
<path d="M17.6437 0.198074C9.69138 1.39684 3.42956 5.10651 0.953401 10.0959C0.262934 11.5053 0.143888 11.9751 0.0486512 13.838C-0.0465857 15.6523 0.024842 16.2193 0.453408 17.5153C1.40578 20.3178 3.64384 22.8935 6.9057 24.9346L8.52473 25.9714L7.21522 26.7651C3.90574 28.7415 1.42959 31.544 0.477217 34.3627C0.024842 35.691 -0.0465857 36.2418 0.0486512 38.0723C0.143888 39.9191 0.262934 40.4213 0.929592 41.7496C2.02482 43.9851 3.5248 45.6051 6.21524 47.468L8.50092 49.0394L7.19142 49.8007C4.14384 51.5827 1.42959 54.5958 0.477217 57.3011C-0.0942041 58.9534 -0.165632 61.7073 0.334362 63.2949C2.09624 68.9647 8.88187 73.4843 17.5246 74.7155C20.2627 75.1204 24.5483 75.088 27.215 74.6507C34.0244 73.5491 39.31 70.7466 42.2624 66.6481C44.2862 63.8456 44.3576 63.5055 44.4766 55.8755C44.5243 52.2145 44.5957 49.2014 44.6433 49.2014C44.6909 49.2014 45.4052 49.4767 46.2147 49.8169C47.929 50.5297 50.0718 51.1453 52.3813 51.5827C53.6194 51.8095 54.7622 51.8743 57.9765 51.8581C61.6669 51.8581 62.2145 51.8257 64.1192 51.4207C70.8335 50.0113 76.1429 46.7876 78.5953 42.6406C79.619 40.891 80 39.5141 80 37.4406C80 33.4393 77.6191 29.8106 73.0953 26.9757L71.4763 25.939L72.7858 25.1452C76.0953 23.1689 78.5714 20.3664 79.5238 17.5477C79.9762 16.2193 80.0476 15.6685 79.9524 13.838C79.8571 11.9751 79.7381 11.5053 79.0476 10.0959C76.7858 5.54389 71.3334 2.02861 64.1192 0.48967L62.024 0.036087L40.5957 0.003685C22.9769 -0.0125122 18.9056 0.0198822 17.6437 0.198074ZM35.4768 14.4536V22.9583H28.2864C22.8341 22.9583 20.6674 22.8935 19.4055 22.7153C14.4294 22.0025 10.358 19.4754 9.16758 16.3975C7.50094 12.0399 11.739 7.50402 18.596 6.27287C20.1436 5.99747 21.2389 5.96507 27.9292 5.96507L35.4768 5.94888V14.4536ZM61.3098 6.27287C68.2382 7.47162 72.5001 12.0075 70.8335 16.3975C69.643 19.4754 65.5716 22.0025 60.5955 22.7153C59.3336 22.8935 57.167 22.9583 51.7385 22.9583H44.5243V14.4536V5.94888H51.9766C58.6669 5.94888 59.6431 5.98128 61.3098 6.27287ZM35.4768 37.473V45.9777L27.4531 45.9291C18.1675 45.8643 17.6437 45.7995 14.4294 44.3253C9.02473 41.863 7.28665 37.4244 10.2866 33.6175C11.2628 32.3539 13.9532 30.6368 15.977 29.9726C18.6675 29.0979 20.0008 28.9845 28.1673 28.9683L35.4768 28.9521V37.473ZM60.6431 29.2113C63.2621 29.5676 65.3097 30.2966 67.2859 31.5764C72.0953 34.6867 72.5239 39.1253 68.3335 42.673C67.0478 43.7745 64.2383 45.0543 62.0717 45.5079C59.6669 46.0263 55.786 46.0263 53.5718 45.5079C49.2861 44.5035 46.1433 42.4138 44.9766 39.7733C44.31 38.2991 44.429 35.9826 45.2147 34.6219C46.8099 31.949 50.5718 29.8268 54.8813 29.1951C56.8336 28.9035 58.5003 28.9035 60.6431 29.2113ZM35.4768 56.8799C35.4768 61.3347 35.4291 61.9017 35.0006 62.8413C33.3815 66.4375 28.0721 68.9647 22.1436 68.9647C12.358 68.9647 5.83429 62.3067 10.1914 56.7503C11.2152 55.4381 13.858 53.7372 15.977 53.0244C18.6675 52.1173 20.2389 51.9877 28.4054 51.9715L35.4768 51.9553V56.8799Z" fill="black"/>
</svg>
