<svg width="80" height="77" viewBox="0 0 80 77" fill="none" xmlns="http://www.w3.org/2000/svg">
<path d="M39.5375 77C39.275 77 39.0125 76.8821 38.775 76.6857L36.375 74.4463C36.0125 74.132 36.1875 74.0142 36.3125 73.9552C36.7875 73.6999 36.8875 73.6409 37.4 73.1695C37.45 73.1302 37.525 73.1499 37.575 73.1891L39.425 74.9178C39.4875 74.9767 39.5875 74.9767 39.65 74.9178L46.875 68.3568C46.9375 68.2979 46.9875 68.18 46.9875 68.0425V54.9403C46.9875 54.8028 46.95 54.6849 46.875 54.626L39.65 48.0846C39.5875 48.0257 39.5 48.0257 39.425 48.0846L32.2 54.626C32.125 54.6849 32.0875 54.8224 32.0875 54.9403V68.0425C32.0875 68.1604 32.1375 68.2783 32.2 68.3372L34.175 70.1247C35.25 70.9694 35.9125 69.9676 35.9125 68.9854V56.0403C35.9125 55.8635 36 55.7064 36.125 55.7064H37.0375C37.15 55.7064 37.25 55.8439 37.25 56.0403V68.9854C37.25 71.2444 36.475 72.5213 35.1125 72.5213C34.7 72.5213 34.3625 72.5213 33.45 71.8141L31.55 70.1051C31.0875 69.6729 30.7875 68.8872 30.7875 68.0425V54.9403C30.7875 54.0956 31.075 53.2902 31.55 52.8777L38.775 46.3167C39.2375 45.9042 39.8375 45.9042 40.2875 46.3167L47.5125 52.8777C47.975 53.3098 48.275 54.0956 48.275 54.9403V68.0425C48.275 68.8872 47.9875 69.6926 47.5125 70.1051L40.2875 76.6661C40.075 76.8821 39.8125 77 39.5375 77ZM45.375 64.0745C45.375 61.6191 44.325 60.9708 42.1 60.4994C39.85 60.0279 39.625 59.7922 39.625 58.9672C39.625 58.2797 39.8125 57.3761 41.475 57.3761C42.9625 57.3761 43.5125 57.8868 43.7375 59.4583C43.7625 59.6154 43.8375 59.7136 43.9375 59.7136H44.875C44.9375 59.7136 44.9875 59.6744 45.025 59.6154C45.0625 59.5369 45.0875 59.4583 45.075 59.3601C44.925 56.6493 43.7875 55.3921 41.475 55.3921C39.4125 55.3921 38.1875 56.7671 38.1875 59.0458C38.1875 61.5405 39.4125 62.2084 41.3875 62.5227C43.75 62.8959 43.9375 63.4263 43.9375 64.1531C43.9375 65.4299 43.2875 65.9603 41.7625 65.9603C39.85 65.9603 39.425 65.2138 39.2875 63.7209C39.275 63.5638 39.1875 63.4459 39.075 63.4459H38.1375C38.025 63.4459 37.925 63.5834 37.925 63.7799C37.925 65.6853 38.5875 67.964 41.75 67.964C44.0625 67.964 45.375 66.5496 45.375 64.0745ZM52.1875 54.2331C52.1875 55.4313 51.5625 56.4135 50.8 56.4135C50.0375 56.4135 49.4125 55.4313 49.4125 54.2331C49.4125 52.9955 50.0625 52.0526 50.8 52.0526C51.55 52.033 52.1875 52.9955 52.1875 54.2331ZM51.9625 54.2331C51.9625 53.2116 51.4375 52.4062 50.7875 52.4062C50.15 52.4062 49.625 53.2116 49.625 54.2331C49.625 55.2546 50.15 56.0796 50.7875 56.0796C51.4375 56.0599 51.9625 55.2349 51.9625 54.2331ZM51.4 55.451H51.075C51.0625 55.3331 51.0125 54.7045 51.0125 54.6849C50.9875 54.5474 50.9625 54.4688 50.85 54.4688H50.575V55.451H50.275V52.9955H50.8125C51 52.9955 51.3625 52.9955 51.3625 53.6438C51.3625 54.0956 51.175 54.1938 51.0625 54.2527C51.275 54.2724 51.2875 54.4885 51.325 54.8027C51.3375 54.9992 51.3625 55.3331 51.4 55.451ZM51.05 53.7224C51.05 53.3884 50.9 53.3884 50.825 53.3884H50.575V54.0759H50.8125C51.0125 54.0759 51.05 53.8599 51.05 53.7224ZM17.1625 25.7302C17.1625 25.1999 16.9875 24.7284 16.7 24.4731L9.0375 17.5389C8.9125 17.421 8.7625 17.3621 8.6125 17.3424H8.5375C8.3875 17.3424 8.25 17.421 8.1125 17.5389L0.4625 24.4731C0.175 24.7284 0 25.2195 0 25.7302L0.0125 44.3917C0.0125 44.647 0.1 44.8827 0.2375 45.0202C0.375 45.1578 0.55 45.1578 0.7 45.0202L5.25 40.9147C5.5375 40.6397 5.7125 40.1683 5.7125 39.6575V30.9358C5.7125 30.4251 5.8875 29.934 6.175 29.6786L8.1125 27.9303C8.2625 27.7928 8.4125 27.7339 8.575 27.7339C8.7375 27.7339 8.9 27.7928 9.0375 27.9303L10.975 29.6786C11.2625 29.934 11.4375 30.4251 11.4375 30.9358V39.6575C11.4375 40.1683 11.6125 40.6594 11.9 40.9147L16.45 45.0202C16.5875 45.1578 16.775 45.1578 16.9125 45.0202C17.05 44.9024 17.1375 44.647 17.1375 44.3917L17.1625 25.7302ZM59.0625 5.35985V40.0111C59.0625 40.5219 58.8875 41.013 58.6 41.2683L50.9375 48.2221C50.65 48.4775 50.3 48.4775 50.0125 48.2221L42.35 41.2683C42.0625 41.013 41.8875 40.5219 41.8875 40.0111V26.1035C41.8875 25.5927 42.0625 25.1016 42.35 24.8463L50.0125 17.8925C50.3 17.6371 50.65 17.6371 50.9375 17.8925L52.85 19.6211C53.0625 19.8175 53.3375 19.5622 53.3375 19.1889V0.72396C53.3375 0.17394 53.7125 -0.179645 54.025 0.0953651L58.5875 4.10266C58.875 4.33838 59.0625 4.82947 59.0625 5.35985ZM53.3125 30.6804C53.3125 30.5429 53.2625 30.4251 53.2 30.3661L50.575 27.9696C50.5 27.9107 50.4125 27.9107 50.3375 27.9696L47.7125 30.3661C47.6375 30.4251 47.6 30.5429 47.6 30.6804V35.4538C47.6 35.5913 47.65 35.7092 47.7125 35.7681L50.3375 38.145C50.4125 38.2039 50.5 38.2039 50.5625 38.145L53.1875 35.7681C53.2625 35.7092 53.3 35.5913 53.3 35.4538V30.6804H53.3125ZM79.5375 30.5429C79.825 30.2876 80 29.7965 80 29.2857V25.9267C80 25.4159 79.825 24.9249 79.5375 24.6695L71.925 17.7157C71.6375 17.4603 71.2875 17.4603 71 17.7157L63.3375 24.6695C63.05 24.9249 62.875 25.4159 62.875 25.9267V39.8343C62.875 40.3647 63.05 40.8362 63.3375 41.0915L70.95 47.9078C71.225 48.1632 71.575 48.1632 71.8625 47.9078L76.4625 43.8809C76.775 43.6059 76.775 42.8987 76.4625 42.6237L68.75 35.6699C68.6 35.5324 68.5125 35.2967 68.5125 35.0413V30.6804C68.5125 30.4251 68.6 30.1893 68.75 30.0518L71.15 27.8714C71.2875 27.7339 71.475 27.7339 71.6125 27.8714L74.0125 30.0518C74.15 30.1893 74.25 30.4251 74.25 30.6804V34.0984C74.25 34.6484 74.6375 35.002 74.95 34.727L79.5375 30.5429ZM69.875 31.2304C69.825 31.2894 69.7875 31.368 69.7875 31.4662V34.1377C69.7875 34.2359 69.825 34.3341 69.875 34.3734L71.35 35.7092C71.4 35.7681 71.475 35.7681 71.525 35.7092L73 34.3734C73.05 34.3145 73.0875 34.2359 73.0875 34.1377V31.4662C73.0875 31.368 73.05 31.2697 73 31.2304L71.525 29.8947C71.475 29.8358 71.4 29.8358 71.35 29.8947L69.875 31.2304ZM38.1 39.7754V25.9463C38.1 25.4356 37.9 24.9445 37.6125 24.6891L29.975 17.7746C29.7125 17.5389 29.35 17.4996 29.05 17.7746L21.4125 24.6891C21.125 24.9445 20.925 25.4159 20.925 25.9463V39.7754C20.925 40.3254 21.1625 40.7969 21.425 41.0326L29.075 47.9471C29.375 48.2221 29.725 48.2025 30 47.9471L37.625 41.0326C37.85 40.8362 38.0125 40.5022 38.075 40.1094C38.0875 40.0111 38.1 39.8933 38.1 39.7754ZM28.8125 15.2406L28.7125 15.3388H28.85L28.8125 15.2406ZM38.3375 40.8165L38.2875 40.679V40.8558L38.3375 40.8165Z" fill="black"/>
</svg>
