<svg width="80" height="75" viewBox="0 0 80 75" fill="none" xmlns="http://www.w3.org/2000/svg">
    <path d="M36.8822 0.135117C34.4745 0.300262 31.3008 0.840729 28.815 1.53133C14.7129 5.4197 3.7533 16.7996 0.829704 30.5665C-1.29655 40.6102 0.70463 50.9092 6.36422 59.2114C10.3509 65.0664 15.4321 69.5103 21.4981 72.5129C23.7026 73.6089 26.8294 74.8249 27.7987 74.975C28.7055 75.1102 29.5029 74.6898 29.8781 73.8791C30.1595 73.2786 30.1595 72.9783 30.0657 69.5854L29.9563 65.9372L28.6117 66.1474C27.0952 66.3726 24.6093 66.2825 22.5769 65.9522C20.9353 65.667 19.2781 64.8863 18.2306 63.8654C17.402 63.0697 17.1831 62.7244 16.1043 60.4274C15.1194 58.3406 13.9937 56.9594 12.4772 55.9686C11.4453 55.278 10.5855 54.3772 10.648 54.0469C10.7418 53.5965 11.3984 53.4013 12.5397 53.4764C14.7442 53.6265 17.0424 55.1729 18.684 57.59C19.8096 59.2414 20.9197 60.2773 22.2799 60.9229C23.2492 61.3883 23.515 61.4483 24.922 61.4933C26.5324 61.5534 28.1583 61.3132 29.4716 60.8328C30.1126 60.5926 30.1439 60.5625 30.3784 59.5567C30.6754 58.2655 31.2539 57.0945 32.0356 56.1337L32.6453 55.3981L31.3633 55.2329C27.2359 54.6624 24.2967 53.7016 21.5607 52.0051C17.9804 49.7832 15.8542 46.3152 14.8223 41.0306C14.5096 39.3942 14.4627 35.1905 14.7442 33.6442C15.1975 31.137 16.2763 28.855 17.871 26.9634L18.5745 26.1377L18.2619 25.2069C17.4489 22.6847 17.6052 19.622 18.6996 16.5894C18.981 15.8387 19.0436 15.8087 20.3099 15.8688C22.1548 15.9588 26.1102 17.4902 28.7993 19.1416L29.9093 19.8322L30.7849 19.6671C31.2539 19.577 32.145 19.3968 32.7704 19.2617C37.0073 18.391 43.0108 18.391 47.2477 19.2617C47.8731 19.3968 48.7642 19.577 49.2332 19.6671L50.0931 19.8172L51.5784 18.9464C55.1117 16.8896 59.1453 15.4934 60.5681 15.8537C60.9745 15.9588 61.084 16.109 61.3967 16.9797C62.0689 18.8564 62.2565 20.1325 62.1784 22.2493C62.1158 23.6755 62.0064 24.4712 61.7719 25.1768L61.4436 26.1377L62.1315 26.9484C63.5229 28.5848 64.5548 30.6116 65.1332 32.7884C65.4772 34.1246 65.5241 39.0489 65.1958 40.9555C64.6955 43.9281 63.4135 47.0508 61.9126 48.9425C59.333 52.2003 54.6583 54.4372 48.7329 55.2179L47.3728 55.3981L47.9825 56.1337C48.7173 57.0345 49.3114 58.1905 49.6397 59.4516C49.8586 60.2323 49.9055 61.5084 49.9524 67.0031C50.0306 74.3595 50.0306 74.3445 51.0781 74.8249C51.7973 75.1402 52.3757 75.0501 54.6583 74.1944C66.1964 69.9307 75.2955 60.2022 78.6256 48.6272C80.83 40.9255 80.361 31.9928 77.3748 24.5913C74.6858 17.9856 69.9486 11.9504 64.117 7.74672C57.7852 3.19778 50.5934 0.630547 42.745 0.135117C40.0091 -0.0450363 39.7433 -0.0450363 36.8822 0.135117Z" fill="black"/>
</svg>
