

<svg width="76" height="77" viewBox="0 0 76 77" fill="none" xmlns="http://www.w3.org/2000/svg">
<path d="M38 29.3322C36.2105 29.3329 34.4613 29.8711 32.9737 30.8789C31.4861 31.8867 30.3268 33.3188 29.6425 34.994C28.9581 36.6693 28.7794 38.5125 29.1289 40.2907C29.4785 42.0688 30.3405 43.702 31.6062 44.9838C32.8718 46.2656 34.4841 47.1384 36.2393 47.4919C37.9945 47.8454 39.8137 47.6636 41.467 46.9696C43.1202 46.2756 44.5332 45.1006 45.5274 43.593C46.5215 42.0854 47.0521 40.3131 47.0521 38.5C47.0503 36.0685 46.096 33.7372 44.3986 32.0182C42.7013 30.2992 40.3999 29.3331 38 29.3322V29.3322ZM59.1562 22.2853C58.6955 21.1025 57.9999 20.0283 57.1125 19.1292C56.225 18.2301 55.1647 17.5253 53.9973 17.0586C50.4348 15.6338 41.9527 15.9534 38 15.9534C34.0473 15.9534 25.5737 15.6217 22.001 17.0586C20.8336 17.5253 19.7733 18.2301 18.8858 19.1292C17.9984 20.0283 17.3028 21.1025 16.8421 22.2853C15.4375 25.8947 15.7513 34.497 15.7513 38.4983C15.7513 42.4995 15.4375 51.0916 16.8489 54.713C17.3096 55.8957 18.0052 56.97 18.8926 57.8691C19.78 58.7682 20.8404 59.473 22.0078 59.9397C25.5703 61.3645 34.0524 61.0448 38.0068 61.0448C41.9612 61.0448 50.4314 61.3766 54.0041 59.9397C55.1715 59.473 56.2318 58.7682 57.1192 57.8691C58.0067 56.97 58.7023 55.8957 59.1629 54.713C60.5795 51.1036 60.2537 42.5013 60.2537 38.5C60.2537 34.4987 60.5795 25.9084 59.1629 22.287L59.1562 22.2853ZM38 52.5938C35.2487 52.5938 32.5592 51.7672 30.2716 50.2185C27.984 48.6699 26.201 46.4687 25.1482 43.8934C24.0953 41.3181 23.8198 38.4844 24.3566 35.7504C24.8933 33.0165 26.2182 30.5053 28.1636 28.5342C30.1091 26.5632 32.5877 25.2209 35.2862 24.6771C37.9846 24.1332 40.7815 24.4124 43.3234 25.4791C45.8652 26.5458 48.0378 28.3522 49.5663 30.6699C51.0949 32.9876 51.9107 35.7125 51.9107 38.5C51.9129 40.3515 51.5547 42.1852 50.8564 43.8961C50.1581 45.6071 49.1335 47.1617 47.8413 48.4708C46.5492 49.78 45.0148 50.8181 43.326 51.5255C41.6373 52.233 39.8274 52.596 38 52.5938V52.5938ZM52.4841 27.1047C51.8418 27.105 51.2139 26.9124 50.6797 26.5511C50.1455 26.1898 49.7291 25.6762 49.4831 25.0751C49.2371 24.474 49.1725 23.8125 49.2976 23.1743C49.4227 22.536 49.7318 21.9497 50.1859 21.4894C50.6399 21.0292 51.2184 20.7157 51.8483 20.5886C52.4782 20.4616 53.1312 20.5266 53.7246 20.7756C54.318 21.0245 54.8252 21.4461 55.182 21.9872C55.5389 22.5282 55.7294 23.1643 55.7294 23.815C55.7312 24.2471 55.6487 24.6753 55.4868 25.0751C55.3249 25.4749 55.0866 25.8383 54.7858 26.1446C54.4849 26.4509 54.1273 26.6939 53.7335 26.8599C53.3397 27.0258 52.9174 27.1113 52.4909 27.1116L52.4841 27.1047ZM67.8571 0H8.14286C5.98324 0 3.91207 0.869194 2.38499 2.41637C0.857906 3.96354 0 6.06196 0 8.25L0 68.75C0 70.938 0.857906 73.0365 2.38499 74.5836C3.91207 76.1308 5.98324 77 8.14286 77H67.8571C70.0168 77 72.0879 76.1308 73.615 74.5836C75.1421 73.0365 76 70.938 76 68.75V8.25C76 6.06196 75.1421 3.96354 73.615 2.41637C72.0879 0.869194 70.0168 0 67.8571 0V0ZM64.9529 49.8438C64.734 54.2489 63.7416 58.1522 60.5676 61.3594C57.3936 64.5666 53.5444 65.5927 49.2015 65.8023C44.7212 66.0584 31.2889 66.0584 26.8087 65.8023C22.4607 65.5806 18.6217 64.5734 15.4426 61.3594C12.2635 58.1453 11.2643 54.2403 11.0573 49.8438C10.8046 45.3028 10.8046 31.692 11.0573 27.1562C11.2762 22.7511 12.2567 18.8478 15.4426 15.6406C18.6285 12.4334 22.4777 11.4194 26.8087 11.2097C31.2889 10.9536 44.7212 10.9536 49.2015 11.2097C53.5495 11.4314 57.4004 12.4386 60.5676 15.6527C63.7348 18.8667 64.7459 22.7717 64.9529 27.1769C65.2056 31.7006 65.2056 45.2994 64.9529 49.8438Z" fill="#375F75"/>
</svg>
