<svg width="77" height="77" viewBox="0 0 77 77" fill="none" xmlns="http://www.w3.org/2000/svg">
<path d="M71.5 0H5.48281C2.45781 0 0 2.49219 0 5.55156V71.4484C0 74.5078 2.45781 77 5.48281 77H71.5C74.525 77 77 74.5078 77 71.4484V5.55156C77 2.49219 74.525 0 71.5 0ZM23.2719 66H11.8594V29.2531H23.2891V66H23.2719ZM17.5656 24.2344C13.9047 24.2344 10.9484 21.2609 10.9484 17.6172C10.9484 13.9734 13.9047 11 17.5656 11C21.2094 11 24.1828 13.9734 24.1828 17.6172C24.1828 21.2781 21.2266 24.2344 17.5656 24.2344V24.2344ZM66.0516 66H54.6391V48.125C54.6391 43.8625 54.5531 38.3797 48.7094 38.3797C42.7625 38.3797 41.8516 43.0203 41.8516 47.8156V66H30.4391V29.2531H41.3875V34.2719H41.5422C43.0719 31.3844 46.8016 28.3422 52.3531 28.3422C63.9031 28.3422 66.0516 35.9562 66.0516 45.8562V66V66Z" fill="#375F75"/>
</svg>
