<svg width="245" height="105" viewBox="0 0 245 105" fill="none" xmlns="http://www.w3.org/2000/svg">
<rect width="110.154" height="81.1051" transform="matrix(0.963033 0.269383 -0.370706 0.92875 138.918 0)" fill="#FFCD00"/>
<path d="M24.0791 57.4425L34.5528 22.6891H45.1534L29.062 68.9001H19.128L3.10013 22.6891H13.669L24.0791 57.4425ZM58.6104 68.9001H49.4063V34.5592H58.6104V68.9001ZM48.8667 25.6725C48.8667 24.2972 49.3216 23.1652 50.2315 22.2765C51.1625 21.3878 52.4214 20.9435 54.0083 20.9435C55.5741 20.9435 56.8225 21.3878 57.7534 22.2765C58.6844 23.1652 59.1499 24.2972 59.1499 25.6725C59.1499 27.069 58.6739 28.2116 57.7217 29.1003C56.7907 29.9889 55.5529 30.4333 54.0083 30.4333C52.4637 30.4333 51.2154 29.9889 50.2632 29.1003C49.3322 28.2116 48.8667 27.069 48.8667 25.6725ZM74.6382 34.5592L74.9239 38.5265C77.3783 35.4585 80.6685 33.9245 84.7945 33.9245C88.4338 33.9245 91.1421 34.993 92.9195 37.13C94.6968 39.2671 95.6066 42.4621 95.649 46.715V68.9001H86.4766V46.9372C86.4766 44.9905 86.0534 43.5835 85.2071 42.716C84.3607 41.8273 82.9536 41.383 80.9859 41.383C78.4045 41.383 76.4685 42.4832 75.1778 44.6837V68.9001H66.0054V34.5592H74.6382ZM112.312 68.9001H103.107V34.5592H112.312V68.9001ZM102.568 25.6725C102.568 24.2972 103.023 23.1652 103.933 22.2765C104.864 21.3878 106.123 20.9435 107.71 20.9435C109.275 20.9435 110.524 21.3878 111.455 22.2765C112.386 23.1652 112.851 24.2972 112.851 25.6725C112.851 27.069 112.375 28.2116 111.423 29.1003C110.492 29.9889 109.254 30.4333 107.71 30.4333C106.165 30.4333 104.917 29.9889 103.964 29.1003C103.033 28.2116 102.568 27.069 102.568 25.6725Z" fill="black"/>
<path d="M137.734 52.8087H119.865V45.4137H137.734V52.8087ZM155.825 68.9001H146.303V22.6891H155.825V68.9001ZM198.513 30.4015H184.357V68.9001H174.836V30.4015H160.871V22.6891H198.513V30.4015Z" fill="white"/>
</svg>
