<svg width="334" height="234" viewBox="0 0 334 234" fill="none" xmlns="http://www.w3.org/2000/svg">
<g filter="url(#filter0_d)">
<rect width="150" height="150" transform="matrix(0.942788 0.333394 -0.30108 0.953599 166.695 15)" fill="#FFCD00"/>
</g>
<path d="M26.0938 124.232L38.9844 81.459H52.0312L32.2266 138.334H20L0.273438 81.459H13.2812L26.0938 124.232ZM68.5938 138.334H57.2656V96.0684H68.5938V138.334ZM56.6016 85.1309C56.6016 83.4382 57.1615 82.0449 58.2812 80.9512C59.4271 79.8574 60.9766 79.3105 62.9297 79.3105C64.8568 79.3105 66.3932 79.8574 67.5391 80.9512C68.6849 82.0449 69.2578 83.4382 69.2578 85.1309C69.2578 86.8496 68.6719 88.2559 67.5 89.3496C66.3542 90.4434 64.8307 90.9902 62.9297 90.9902C61.0286 90.9902 59.4922 90.4434 58.3203 89.3496C57.1745 88.2559 56.6016 86.8496 56.6016 85.1309ZM88.3203 96.0684L88.6719 100.951C91.6927 97.1751 95.7422 95.2871 100.82 95.2871C105.299 95.2871 108.633 96.6022 110.82 99.2324C113.008 101.863 114.128 105.795 114.18 111.029V138.334H102.891V111.303C102.891 108.907 102.37 107.175 101.328 106.107C100.286 105.014 98.5547 104.467 96.1328 104.467C92.9557 104.467 90.5729 105.821 88.9844 108.529V138.334H77.6953V96.0684H88.3203ZM134.688 138.334H123.359V96.0684H134.688V138.334ZM122.695 85.1309C122.695 83.4382 123.255 82.0449 124.375 80.9512C125.521 79.8574 127.07 79.3105 129.023 79.3105C130.951 79.3105 132.487 79.8574 133.633 80.9512C134.779 82.0449 135.352 83.4382 135.352 85.1309C135.352 86.8496 134.766 88.2559 133.594 89.3496C132.448 90.4434 130.924 90.9902 129.023 90.9902C127.122 90.9902 125.586 90.4434 124.414 89.3496C123.268 88.2559 122.695 86.8496 122.695 85.1309Z" fill="black"/>
<path d="M165.977 118.529H143.984V109.428H165.977V118.529ZM188.242 138.334H176.523V81.459H188.242V138.334ZM240.781 90.9512H223.359V138.334H211.641V90.9512H194.453V81.459H240.781V90.9512Z" fill="white"/>
<defs>
<filter id="filter0_d" x="106.533" y="0" width="226.58" height="233.049" filterUnits="userSpaceOnUse" color-interpolation-filters="sRGB">
<feFlood flood-opacity="0" result="BackgroundImageFix"/>
<feColorMatrix in="SourceAlpha" type="matrix" values="0 0 0 0 0 0 0 0 0 0 0 0 0 0 0 0 0 0 127 0"/>
<feOffset dx="5" dy="5"/>
<feGaussianBlur stdDeviation="10"/>
<feColorMatrix type="matrix" values="0 0 0 0 0 0 0 0 0 0 0 0 0 0 0 0 0 0 0.5 0"/>
<feBlend mode="normal" in2="BackgroundImageFix" result="effect1_dropShadow"/>
<feBlend mode="normal" in="SourceGraphic" in2="effect1_dropShadow" result="shape"/>
</filter>
</defs>
</svg>
