<svg width="212" height="104" viewBox="0 0 212 104" fill="none" xmlns="http://www.w3.org/2000/svg">
<path d="M18.175 14.8634C-0.936759 31.1185 -5.71465 60.8796 18.175 67.7124C42.0646 74.5453 82.5175 62.7537 89.0476 67.7124C95.5777 72.6712 89.0476 79.5322 100.992 97.5566C112.937 115.581 92.3286 73.3147 112.141 67.7124C131.953 62.1102 168.68 75.8017 191.773 67.7124C214.866 59.6232 217.255 32.8878 191.773 14.8634C166.291 -3.16104 37.2867 -1.39174 18.175 14.8634Z" fill="white" stroke="#375F75" stroke-width="3"/>
<path d="M30.3817 24.2891C29.0953 23.9193 28.1578 23.4661 27.5692 22.9297C26.9859 22.388 26.6942 21.7214 26.6942 20.9297C26.6942 20.0339 27.051 19.2943 27.7645 18.7109C28.4833 18.1224 29.4156 17.8281 30.5614 17.8281C31.3427 17.8281 32.038 17.9792 32.6473 18.2812C33.2619 18.5833 33.7359 19 34.0692 19.5312C34.4078 20.0625 34.577 20.6432 34.577 21.2734H33.0692C33.0692 20.5859 32.8505 20.0469 32.413 19.6562C31.9755 19.2604 31.3583 19.0625 30.5614 19.0625C29.8218 19.0625 29.2437 19.2266 28.827 19.5547C28.4156 19.8776 28.2098 20.3281 28.2098 20.9062C28.2098 21.3698 28.4052 21.763 28.7958 22.0859C29.1916 22.4036 29.8609 22.6953 30.8036 22.9609C31.7515 23.2266 32.4911 23.5208 33.0223 23.8438C33.5588 24.1615 33.9546 24.5339 34.2098 24.9609C34.4703 25.388 34.6005 25.8906 34.6005 26.4688C34.6005 27.3906 34.2411 28.1302 33.5223 28.6875C32.8036 29.2396 31.8427 29.5156 30.6395 29.5156C29.8583 29.5156 29.1291 29.3672 28.452 29.0703C27.7749 28.7682 27.2515 28.3568 26.8817 27.8359C26.5171 27.3151 26.3348 26.724 26.3348 26.0625H27.8427C27.8427 26.75 28.0953 27.2943 28.6005 27.6953C29.1109 28.0911 29.7906 28.2891 30.6395 28.2891C31.4312 28.2891 32.038 28.1276 32.4598 27.8047C32.8817 27.4818 33.0927 27.0417 33.0927 26.4844C33.0927 25.9271 32.8973 25.4974 32.5067 25.1953C32.1161 24.888 31.4078 24.5859 30.3817 24.2891ZM39.8114 29.5156C38.6656 29.5156 37.7333 29.1406 37.0145 28.3906C36.2958 27.6354 35.9364 26.6276 35.9364 25.3672V25.1016C35.9364 24.263 36.0953 23.5156 36.413 22.8594C36.7359 22.1979 37.1838 21.6823 37.7567 21.3125C38.3348 20.9375 38.9598 20.75 39.6317 20.75C40.7307 20.75 41.5848 21.112 42.1942 21.8359C42.8036 22.5599 43.1083 23.5964 43.1083 24.9453V25.5469H37.3817C37.4025 26.3802 37.6447 27.0547 38.1083 27.5703C38.577 28.0807 39.1708 28.3359 39.8895 28.3359C40.3999 28.3359 40.8322 28.2318 41.1864 28.0234C41.5406 27.8151 41.8505 27.5391 42.1161 27.1953L42.9989 27.8828C42.2906 28.9714 41.2281 29.5156 39.8114 29.5156ZM39.6317 21.9375C39.0484 21.9375 38.5588 22.151 38.163 22.5781C37.7671 23 37.5223 23.5938 37.4286 24.3594H41.663V24.25C41.6213 23.5156 41.4234 22.9479 41.0692 22.5469C40.715 22.1406 40.2359 21.9375 39.6317 21.9375ZM48.2958 29.5156C47.1499 29.5156 46.2177 29.1406 45.4989 28.3906C44.7802 27.6354 44.4208 26.6276 44.4208 25.3672V25.1016C44.4208 24.263 44.5796 23.5156 44.8973 22.8594C45.2203 22.1979 45.6682 21.6823 46.2411 21.3125C46.8192 20.9375 47.4442 20.75 48.1161 20.75C49.215 20.75 50.0692 21.112 50.6786 21.8359C51.288 22.5599 51.5927 23.5964 51.5927 24.9453V25.5469H45.8661C45.8869 26.3802 46.1291 27.0547 46.5927 27.5703C47.0614 28.0807 47.6552 28.3359 48.3739 28.3359C48.8843 28.3359 49.3166 28.2318 49.6708 28.0234C50.0249 27.8151 50.3348 27.5391 50.6005 27.1953L51.4833 27.8828C50.7749 28.9714 49.7124 29.5156 48.2958 29.5156ZM48.1161 21.9375C47.5328 21.9375 47.0432 22.151 46.6473 22.5781C46.2515 23 46.0067 23.5938 45.913 24.3594H50.1473V24.25C50.1057 23.5156 49.9078 22.9479 49.5536 22.5469C49.1994 22.1406 48.7203 21.9375 48.1161 21.9375ZM60.0067 27.2422L61.9755 20.9062H63.5223L60.1239 30.6641C59.5979 32.0703 58.7619 32.7734 57.6161 32.7734L57.3427 32.75L56.8036 32.6484V31.4766L57.1942 31.5078C57.6838 31.5078 58.064 31.4089 58.3348 31.2109C58.6109 31.013 58.8374 30.651 59.0145 30.125L59.3348 29.2656L56.3192 20.9062H57.8973L60.0067 27.2422ZM64.3114 25.0547C64.3114 24.2266 64.4729 23.4818 64.7958 22.8203C65.1239 22.1589 65.577 21.6484 66.1552 21.2891C66.7385 20.9297 67.4025 20.75 68.1473 20.75C69.2984 20.75 70.2281 21.1484 70.9364 21.9453C71.6499 22.7422 72.0067 23.8021 72.0067 25.125V25.2266C72.0067 26.0495 71.8479 26.7891 71.5302 27.4453C71.2177 28.0964 70.7671 28.6042 70.1786 28.9688C69.5953 29.3333 68.9234 29.5156 68.163 29.5156C67.0171 29.5156 66.0874 29.1172 65.3739 28.3203C64.6656 27.5234 64.3114 26.4688 64.3114 25.1562V25.0547ZM65.7645 25.2266C65.7645 26.1641 65.9807 26.9167 66.413 27.4844C66.8505 28.0521 67.4338 28.3359 68.163 28.3359C68.8973 28.3359 69.4807 28.0495 69.913 27.4766C70.3453 26.8984 70.5614 26.0911 70.5614 25.0547C70.5614 24.1276 70.34 23.3776 69.8973 22.8047C69.4598 22.2266 68.8765 21.9375 68.1473 21.9375C67.4338 21.9375 66.8583 22.2214 66.4208 22.7891C65.9833 23.3568 65.7645 24.1693 65.7645 25.2266ZM79.038 28.5234C78.4755 29.1849 77.6499 29.5156 76.5614 29.5156C75.6604 29.5156 74.9729 29.2552 74.4989 28.7344C74.0302 28.2083 73.7932 27.4323 73.788 26.4062V20.9062H75.2333V26.3672C75.2333 27.6484 75.7541 28.2891 76.7958 28.2891C77.8999 28.2891 78.6343 27.8776 78.9989 27.0547V20.9062H80.4442V29.3594H79.0692L79.038 28.5234ZM91.8348 29.3594C91.7515 29.1927 91.6838 28.8958 91.6317 28.4688C90.9598 29.1667 90.1578 29.5156 89.2255 29.5156C88.3921 29.5156 87.7072 29.2812 87.1708 28.8125C86.6395 28.3385 86.3739 27.7396 86.3739 27.0156C86.3739 26.1354 86.7072 25.4531 87.3739 24.9688C88.0458 24.4792 88.9885 24.2344 90.202 24.2344H91.6083V23.5703C91.6083 23.0651 91.4572 22.6641 91.1552 22.3672C90.8531 22.0651 90.4078 21.9141 89.8192 21.9141C89.3036 21.9141 88.8713 22.0443 88.5223 22.3047C88.1734 22.5651 87.9989 22.8802 87.9989 23.25H86.5458C86.5458 22.8281 86.6942 22.4219 86.9911 22.0312C87.2932 21.6354 87.6994 21.3229 88.2098 21.0938C88.7255 20.8646 89.2906 20.75 89.9052 20.75C90.8791 20.75 91.6421 20.9948 92.1942 21.4844C92.7463 21.9688 93.0328 22.638 93.0536 23.4922V27.3828C93.0536 28.1589 93.1525 28.776 93.3505 29.2344V29.3594H91.8348ZM89.4364 28.2578C89.8895 28.2578 90.3192 28.1406 90.7255 27.9062C91.1317 27.6719 91.426 27.3672 91.6083 26.9922V25.2578H90.4755C88.7046 25.2578 87.8192 25.776 87.8192 26.8125C87.8192 27.2656 87.9703 27.6198 88.2723 27.875C88.5744 28.1302 88.9624 28.2578 89.4364 28.2578ZM99.4052 22.2031C99.1864 22.1667 98.9494 22.1484 98.6942 22.1484C97.7463 22.1484 97.1031 22.5521 96.7645 23.3594V29.3594H95.3192V20.9062H96.7255L96.7489 21.8828C97.2229 21.1276 97.8947 20.75 98.7645 20.75C99.0458 20.75 99.2593 20.7865 99.4052 20.8594V22.2031ZM100.202 25.0547C100.202 24.2266 100.363 23.4818 100.686 22.8203C101.015 22.1589 101.468 21.6484 102.046 21.2891C102.629 20.9297 103.293 20.75 104.038 20.75C105.189 20.75 106.119 21.1484 106.827 21.9453C107.541 22.7422 107.897 23.8021 107.897 25.125V25.2266C107.897 26.0495 107.738 26.7891 107.421 27.4453C107.108 28.0964 106.658 28.6042 106.069 28.9688C105.486 29.3333 104.814 29.5156 104.054 29.5156C102.908 29.5156 101.978 29.1172 101.265 28.3203C100.556 27.5234 100.202 26.4688 100.202 25.1562V25.0547ZM101.655 25.2266C101.655 26.1641 101.871 26.9167 102.304 27.4844C102.741 28.0521 103.324 28.3359 104.054 28.3359C104.788 28.3359 105.371 28.0495 105.804 27.4766C106.236 26.8984 106.452 26.0911 106.452 25.0547C106.452 24.1276 106.231 23.3776 105.788 22.8047C105.35 22.2266 104.767 21.9375 104.038 21.9375C103.324 21.9375 102.749 22.2214 102.311 22.7891C101.874 23.3568 101.655 24.1693 101.655 25.2266ZM114.929 28.5234C114.366 29.1849 113.541 29.5156 112.452 29.5156C111.551 29.5156 110.863 29.2552 110.39 28.7344C109.921 28.2083 109.684 27.4323 109.679 26.4062V20.9062H111.124V26.3672C111.124 27.6484 111.645 28.2891 112.686 28.2891C113.791 28.2891 114.525 27.8776 114.89 27.0547V20.9062H116.335V29.3594H114.96L114.929 28.5234ZM119.905 20.9062L119.952 21.9688C120.598 21.1562 121.442 20.75 122.483 20.75C124.27 20.75 125.171 21.7578 125.186 23.7734V29.3594H123.741V23.7656C123.736 23.1562 123.595 22.7057 123.319 22.4141C123.048 22.1224 122.624 21.9766 122.046 21.9766C121.577 21.9766 121.166 22.1016 120.811 22.3516C120.457 22.6016 120.181 22.9297 119.983 23.3359V29.3594H118.538V20.9062H119.905ZM127.015 25.0625C127.015 23.7656 127.322 22.724 127.936 21.9375C128.551 21.1458 129.356 20.75 130.35 20.75C131.34 20.75 132.124 21.0885 132.702 21.7656V17.3594H134.147V29.3594H132.819L132.749 28.4531C132.171 29.1615 131.366 29.5156 130.335 29.5156C129.356 29.5156 128.556 29.1146 127.936 28.3125C127.322 27.5104 127.015 26.4635 127.015 25.1719V25.0625ZM128.46 25.2266C128.46 26.1849 128.658 26.9349 129.054 27.4766C129.449 28.0182 129.996 28.2891 130.694 28.2891C131.611 28.2891 132.28 27.8776 132.702 27.0547V23.1719C132.27 22.375 131.606 21.9766 130.71 21.9766C130.002 21.9766 129.449 22.25 129.054 22.7969C128.658 23.3438 128.46 24.1536 128.46 25.2266ZM143.952 25.0547C143.952 24.2266 144.113 23.4818 144.436 22.8203C144.765 22.1589 145.218 21.6484 145.796 21.2891C146.379 20.9297 147.043 20.75 147.788 20.75C148.939 20.75 149.869 21.1484 150.577 21.9453C151.291 22.7422 151.647 23.8021 151.647 25.125V25.2266C151.647 26.0495 151.488 26.7891 151.171 27.4453C150.858 28.0964 150.408 28.6042 149.819 28.9688C149.236 29.3333 148.564 29.5156 147.804 29.5156C146.658 29.5156 145.728 29.1172 145.015 28.3203C144.306 27.5234 143.952 26.4688 143.952 25.1562V25.0547ZM145.405 25.2266C145.405 26.1641 145.621 26.9167 146.054 27.4844C146.491 28.0521 147.074 28.3359 147.804 28.3359C148.538 28.3359 149.121 28.0495 149.554 27.4766C149.986 26.8984 150.202 26.0911 150.202 25.0547C150.202 24.1276 149.981 23.3776 149.538 22.8047C149.1 22.2266 148.517 21.9375 147.788 21.9375C147.074 21.9375 146.499 22.2214 146.061 22.7891C145.624 23.3568 145.405 24.1693 145.405 25.2266ZM154.827 20.9062L154.874 21.9688C155.52 21.1562 156.363 20.75 157.405 20.75C159.192 20.75 160.093 21.7578 160.108 23.7734V29.3594H158.663V23.7656C158.658 23.1562 158.517 22.7057 158.241 22.4141C157.97 22.1224 157.546 21.9766 156.968 21.9766C156.499 21.9766 156.087 22.1016 155.733 22.3516C155.379 22.6016 155.103 22.9297 154.905 23.3359V29.3594H153.46V20.9062H154.827ZM168.218 18.8594V20.9062H169.796V22.0234H168.218V27.2656C168.218 27.6042 168.288 27.8594 168.429 28.0312C168.569 28.1979 168.809 28.2812 169.147 28.2812C169.314 28.2812 169.543 28.25 169.835 28.1875V29.3594C169.455 29.4635 169.085 29.5156 168.725 29.5156C168.08 29.5156 167.593 29.3203 167.265 28.9297C166.936 28.5391 166.772 27.9844 166.772 27.2656V22.0234H165.233V20.9062H166.772V18.8594H168.218ZM172.936 21.9297C173.577 21.1432 174.41 20.75 175.436 20.75C177.223 20.75 178.124 21.7578 178.14 23.7734V29.3594H176.694V23.7656C176.689 23.1562 176.548 22.7057 176.272 22.4141C176.002 22.1224 175.577 21.9766 174.999 21.9766C174.53 21.9766 174.119 22.1016 173.765 22.3516C173.41 22.6016 173.134 22.9297 172.936 23.3359V29.3594H171.491V17.3594H172.936V21.9297ZM183.811 29.5156C182.666 29.5156 181.733 29.1406 181.015 28.3906C180.296 27.6354 179.936 26.6276 179.936 25.3672V25.1016C179.936 24.263 180.095 23.5156 180.413 22.8594C180.736 22.1979 181.184 21.6823 181.757 21.3125C182.335 20.9375 182.96 20.75 183.632 20.75C184.731 20.75 185.585 21.112 186.194 21.8359C186.804 22.5599 187.108 23.5964 187.108 24.9453V25.5469H181.382C181.403 26.3802 181.645 27.0547 182.108 27.5703C182.577 28.0807 183.171 28.3359 183.89 28.3359C184.4 28.3359 184.832 28.2318 185.186 28.0234C185.541 27.8151 185.85 27.5391 186.116 27.1953L186.999 27.8828C186.291 28.9714 185.228 29.5156 183.811 29.5156ZM183.632 21.9375C183.048 21.9375 182.559 22.151 182.163 22.5781C181.767 23 181.522 23.5938 181.429 24.3594H185.663V24.25C185.621 23.5156 185.423 22.9479 185.069 22.5469C184.715 22.1406 184.236 21.9375 183.632 21.9375ZM34.288 46.3672L35.913 39.9062H37.3583L34.8973 48.3594H33.7255L31.6708 41.9531L29.6708 48.3594H28.4989L26.0458 39.9062H27.4833L29.1473 46.2344L31.1161 39.9062H32.2802L34.288 46.3672ZM42.3427 48.5156C41.1968 48.5156 40.2645 48.1406 39.5458 47.3906C38.827 46.6354 38.4677 45.6276 38.4677 44.3672V44.1016C38.4677 43.263 38.6265 42.5156 38.9442 41.8594C39.2671 41.1979 39.715 40.6823 40.288 40.3125C40.8661 39.9375 41.4911 39.75 42.163 39.75C43.2619 39.75 44.1161 40.112 44.7255 40.8359C45.3348 41.5599 45.6395 42.5964 45.6395 43.9453V44.5469H39.913C39.9338 45.3802 40.176 46.0547 40.6395 46.5703C41.1083 47.0807 41.702 47.3359 42.4208 47.3359C42.9312 47.3359 43.3635 47.2318 43.7177 47.0234C44.0718 46.8151 44.3817 46.5391 44.6473 46.1953L45.5302 46.8828C44.8218 47.9714 43.7593 48.5156 42.3427 48.5156ZM42.163 40.9375C41.5796 40.9375 41.09 41.151 40.6942 41.5781C40.2984 42 40.0536 42.5938 39.9598 43.3594H44.1942V43.25C44.1525 42.5156 43.9546 41.9479 43.6005 41.5469C43.2463 41.1406 42.7671 40.9375 42.163 40.9375ZM54.4755 44.2266C54.4755 45.5182 54.1786 46.5573 53.5848 47.3438C52.9911 48.125 52.1942 48.5156 51.1942 48.5156C50.1265 48.5156 49.301 48.138 48.7177 47.3828L48.6473 48.3594H47.3192V36.3594H48.7645V40.8359C49.3479 40.112 50.1525 39.75 51.1786 39.75C52.2046 39.75 53.0093 40.138 53.5927 40.9141C54.1812 41.6901 54.4755 42.7526 54.4755 44.1016V44.2266ZM53.0302 44.0625C53.0302 43.0781 52.84 42.3177 52.4598 41.7812C52.0796 41.2448 51.5328 40.9766 50.8192 40.9766C49.8661 40.9766 49.1812 41.4193 48.7645 42.3047V45.9609C49.2072 46.8464 49.8973 47.2891 50.8348 47.2891C51.5275 47.2891 52.0666 47.0208 52.452 46.4844C52.8374 45.9479 53.0302 45.1406 53.0302 44.0625ZM60.9833 48.3594V41.0234H59.6473V39.9062H60.9833V39.0391C60.9833 38.1328 61.2255 37.4323 61.7098 36.9375C62.1942 36.4427 62.8791 36.1953 63.7645 36.1953C64.0979 36.1953 64.4286 36.2396 64.7567 36.3281L64.6786 37.5C64.4338 37.4531 64.1734 37.4297 63.8973 37.4297C63.4286 37.4297 63.0666 37.5677 62.8114 37.8438C62.5562 38.1146 62.4286 38.5052 62.4286 39.0156V39.9062H64.2333V41.0234H62.4286V48.3594H60.9833ZM69.9208 41.2031C69.702 41.1667 69.465 41.1484 69.2098 41.1484C68.2619 41.1484 67.6187 41.5521 67.2802 42.3594V48.3594H65.8348V39.9062H67.2411L67.2645 40.8828C67.7385 40.1276 68.4104 39.75 69.2802 39.75C69.5614 39.75 69.7749 39.7865 69.9208 39.8594V41.2031ZM72.827 48.3594H71.3817V39.9062H72.827V48.3594ZM71.2645 37.6641C71.2645 37.4297 71.3348 37.2318 71.4755 37.0703C71.6213 36.9089 71.8348 36.8281 72.1161 36.8281C72.3973 36.8281 72.6109 36.9089 72.7567 37.0703C72.9025 37.2318 72.9755 37.4297 72.9755 37.6641C72.9755 37.8984 72.9025 38.0938 72.7567 38.25C72.6109 38.4062 72.3973 38.4844 72.1161 38.4844C71.8348 38.4844 71.6213 38.4062 71.4755 38.25C71.3348 38.0938 71.2645 37.8984 71.2645 37.6641ZM78.6552 48.5156C77.5093 48.5156 76.577 48.1406 75.8583 47.3906C75.1395 46.6354 74.7802 45.6276 74.7802 44.3672V44.1016C74.7802 43.263 74.939 42.5156 75.2567 41.8594C75.5796 41.1979 76.0275 40.6823 76.6005 40.3125C77.1786 39.9375 77.8036 39.75 78.4755 39.75C79.5744 39.75 80.4286 40.112 81.038 40.8359C81.6473 41.5599 81.952 42.5964 81.952 43.9453V44.5469H76.2255C76.2463 45.3802 76.4885 46.0547 76.952 46.5703C77.4208 47.0807 78.0145 47.3359 78.7333 47.3359C79.2437 47.3359 79.676 47.2318 80.0302 47.0234C80.3843 46.8151 80.6942 46.5391 80.9598 46.1953L81.8427 46.8828C81.1343 47.9714 80.0718 48.5156 78.6552 48.5156ZM78.4755 40.9375C77.8921 40.9375 77.4025 41.151 77.0067 41.5781C76.6109 42 76.3661 42.5938 76.2723 43.3594H80.5067V43.25C80.465 42.5156 80.2671 41.9479 79.913 41.5469C79.5588 41.1406 79.0796 40.9375 78.4755 40.9375ZM84.9989 39.9062L85.0458 40.9688C85.6916 40.1562 86.5354 39.75 87.577 39.75C89.3635 39.75 90.2645 40.7578 90.2802 42.7734V48.3594H88.8348V42.7656C88.8296 42.1562 88.689 41.7057 88.413 41.4141C88.1421 41.1224 87.7177 40.9766 87.1395 40.9766C86.6708 40.9766 86.2593 41.1016 85.9052 41.3516C85.551 41.6016 85.2749 41.9297 85.077 42.3359V48.3594H83.6317V39.9062H84.9989ZM92.1083 44.0625C92.1083 42.7656 92.4156 41.724 93.0302 40.9375C93.6447 40.1458 94.4494 39.75 95.4442 39.75C96.4338 39.75 97.2177 40.0885 97.7958 40.7656V36.3594H99.2411V48.3594H97.913L97.8427 47.4531C97.2645 48.1615 96.4598 48.5156 95.4286 48.5156C94.4494 48.5156 93.6499 48.1146 93.0302 47.3125C92.4156 46.5104 92.1083 45.4635 92.1083 44.1719V44.0625ZM93.5536 44.2266C93.5536 45.1849 93.7515 45.9349 94.1473 46.4766C94.5432 47.0182 95.09 47.2891 95.788 47.2891C96.7046 47.2891 97.3739 46.8776 97.7958 46.0547V42.1719C97.3635 41.375 96.6994 40.9766 95.8036 40.9766C95.0953 40.9766 94.5432 41.25 94.1473 41.7969C93.7515 42.3438 93.5536 43.1536 93.5536 44.2266ZM106.413 46.1172C106.413 45.7266 106.265 45.4245 105.968 45.2109C105.676 44.9922 105.163 44.8047 104.429 44.6484C103.699 44.4922 103.119 44.3047 102.686 44.0859C102.259 43.8672 101.942 43.6068 101.733 43.3047C101.53 43.0026 101.429 42.6432 101.429 42.2266C101.429 41.5339 101.72 40.9479 102.304 40.4688C102.892 39.9896 103.642 39.75 104.554 39.75C105.512 39.75 106.288 39.9974 106.882 40.4922C107.481 40.987 107.78 41.6198 107.78 42.3906H106.327C106.327 41.9948 106.158 41.6536 105.819 41.3672C105.486 41.0807 105.064 40.9375 104.554 40.9375C104.028 40.9375 103.616 41.0521 103.319 41.2812C103.022 41.5104 102.874 41.8099 102.874 42.1797C102.874 42.5286 103.012 42.7917 103.288 42.9688C103.564 43.1458 104.061 43.3151 104.78 43.4766C105.504 43.638 106.09 43.8307 106.538 44.0547C106.986 44.2786 107.317 44.5495 107.53 44.8672C107.749 45.1797 107.858 45.5625 107.858 46.0156C107.858 46.7708 107.556 47.3776 106.952 47.8359C106.348 48.2891 105.564 48.5156 104.6 48.5156C103.923 48.5156 103.324 48.3958 102.804 48.1562C102.283 47.9167 101.874 47.5833 101.577 47.1562C101.285 46.724 101.14 46.2578 101.14 45.7578H102.585C102.611 46.2422 102.804 46.6276 103.163 46.9141C103.528 47.1953 104.007 47.3359 104.6 47.3359C105.147 47.3359 105.585 47.2266 105.913 47.0078C106.246 46.7839 106.413 46.487 106.413 46.1172ZM109.694 50.625L108.874 50.0625C109.363 49.3802 109.619 48.6771 109.64 47.9531V46.6484H111.054V47.7812C111.054 48.3073 110.923 48.8333 110.663 49.3594C110.408 49.8854 110.085 50.3073 109.694 50.625ZM118.811 37.8594V39.9062H120.39V41.0234H118.811V46.2656C118.811 46.6042 118.882 46.8594 119.022 47.0312C119.163 47.1979 119.403 47.2812 119.741 47.2812C119.908 47.2812 120.137 47.25 120.429 47.1875V48.3594C120.048 48.4635 119.679 48.5156 119.319 48.5156C118.673 48.5156 118.186 48.3203 117.858 47.9297C117.53 47.5391 117.366 46.9844 117.366 46.2656V41.0234H115.827V39.9062H117.366V37.8594H118.811ZM127.304 48.3594C127.22 48.1927 127.153 47.8958 127.1 47.4688C126.429 48.1667 125.627 48.5156 124.694 48.5156C123.861 48.5156 123.176 48.2812 122.64 47.8125C122.108 47.3385 121.843 46.7396 121.843 46.0156C121.843 45.1354 122.176 44.4531 122.843 43.9688C123.515 43.4792 124.457 43.2344 125.671 43.2344H127.077V42.5703C127.077 42.0651 126.926 41.6641 126.624 41.3672C126.322 41.0651 125.877 40.9141 125.288 40.9141C124.772 40.9141 124.34 41.0443 123.991 41.3047C123.642 41.5651 123.468 41.8802 123.468 42.25H122.015C122.015 41.8281 122.163 41.4219 122.46 41.0312C122.762 40.6354 123.168 40.3229 123.679 40.0938C124.194 39.8646 124.759 39.75 125.374 39.75C126.348 39.75 127.111 39.9948 127.663 40.4844C128.215 40.9688 128.502 41.638 128.522 42.4922V46.3828C128.522 47.1589 128.621 47.776 128.819 48.2344V48.3594H127.304ZM124.905 47.2578C125.358 47.2578 125.788 47.1406 126.194 46.9062C126.6 46.6719 126.895 46.3672 127.077 45.9922V44.2578H125.944C124.173 44.2578 123.288 44.776 123.288 45.8125C123.288 46.2656 123.439 46.6198 123.741 46.875C124.043 47.1302 124.431 47.2578 124.905 47.2578ZM133.147 44.4453L132.241 45.3906V48.3594H130.796V36.3594H132.241V43.6172L133.015 42.6875L135.647 39.9062H137.405L134.116 43.4375L137.788 48.3594H136.093L133.147 44.4453ZM142.249 48.5156C141.103 48.5156 140.171 48.1406 139.452 47.3906C138.733 46.6354 138.374 45.6276 138.374 44.3672V44.1016C138.374 43.263 138.533 42.5156 138.85 41.8594C139.173 41.1979 139.621 40.6823 140.194 40.3125C140.772 39.9375 141.397 39.75 142.069 39.75C143.168 39.75 144.022 40.112 144.632 40.8359C145.241 41.5599 145.546 42.5964 145.546 43.9453V44.5469H139.819C139.84 45.3802 140.082 46.0547 140.546 46.5703C141.015 47.0807 141.608 47.3359 142.327 47.3359C142.837 47.3359 143.27 47.2318 143.624 47.0234C143.978 46.8151 144.288 46.5391 144.554 46.1953L145.436 46.8828C144.728 47.9714 143.666 48.5156 142.249 48.5156ZM142.069 40.9375C141.486 40.9375 140.996 41.151 140.6 41.5781C140.205 42 139.96 42.5938 139.866 43.3594H144.1V43.25C144.059 42.5156 143.861 41.9479 143.507 41.5469C143.153 41.1406 142.673 40.9375 142.069 40.9375ZM154.585 47.3359C155.1 47.3359 155.551 47.1797 155.936 46.8672C156.322 46.5547 156.535 46.1641 156.577 45.6953H157.944C157.918 46.1797 157.752 46.6406 157.444 47.0781C157.137 47.5156 156.725 47.8646 156.21 48.125C155.699 48.3854 155.158 48.5156 154.585 48.5156C153.434 48.5156 152.517 48.1328 151.835 47.3672C151.158 46.5964 150.819 45.5443 150.819 44.2109V43.9688C150.819 43.1458 150.97 42.4141 151.272 41.7734C151.574 41.1328 152.007 40.6354 152.569 40.2812C153.137 39.9271 153.806 39.75 154.577 39.75C155.525 39.75 156.311 40.0339 156.936 40.6016C157.567 41.1693 157.903 41.9062 157.944 42.8125H156.577C156.535 42.2656 156.327 41.8177 155.952 41.4688C155.582 41.1146 155.124 40.9375 154.577 40.9375C153.843 40.9375 153.272 41.2031 152.866 41.7344C152.465 42.2604 152.265 43.0234 152.265 44.0234V44.2969C152.265 45.2708 152.465 46.0208 152.866 46.5469C153.267 47.0729 153.84 47.3359 154.585 47.3359ZM164.788 48.3594C164.705 48.1927 164.637 47.8958 164.585 47.4688C163.913 48.1667 163.111 48.5156 162.179 48.5156C161.345 48.5156 160.66 48.2812 160.124 47.8125C159.593 47.3385 159.327 46.7396 159.327 46.0156C159.327 45.1354 159.66 44.4531 160.327 43.9688C160.999 43.4792 161.942 43.2344 163.155 43.2344H164.561V42.5703C164.561 42.0651 164.41 41.6641 164.108 41.3672C163.806 41.0651 163.361 40.9141 162.772 40.9141C162.257 40.9141 161.824 41.0443 161.475 41.3047C161.127 41.5651 160.952 41.8802 160.952 42.25H159.499C159.499 41.8281 159.647 41.4219 159.944 41.0312C160.246 40.6354 160.653 40.3229 161.163 40.0938C161.679 39.8646 162.244 39.75 162.858 39.75C163.832 39.75 164.595 39.9948 165.147 40.4844C165.699 40.9688 165.986 41.638 166.007 42.4922V46.3828C166.007 47.1589 166.106 47.776 166.304 48.2344V48.3594H164.788ZM162.39 47.2578C162.843 47.2578 163.272 47.1406 163.679 46.9062C164.085 46.6719 164.379 46.3672 164.561 45.9922V44.2578H163.429C161.658 44.2578 160.772 44.776 160.772 45.8125C160.772 46.2656 160.923 46.6198 161.225 46.875C161.528 47.1302 161.916 47.2578 162.39 47.2578ZM172.358 41.2031C172.14 41.1667 171.903 41.1484 171.647 41.1484C170.699 41.1484 170.056 41.5521 169.718 42.3594V48.3594H168.272V39.9062H169.679L169.702 40.8828C170.176 40.1276 170.848 39.75 171.718 39.75C171.999 39.75 172.212 39.7865 172.358 39.8594V41.2031ZM177.046 48.5156C175.9 48.5156 174.968 48.1406 174.249 47.3906C173.53 46.6354 173.171 45.6276 173.171 44.3672V44.1016C173.171 43.263 173.33 42.5156 173.647 41.8594C173.97 41.1979 174.418 40.6823 174.991 40.3125C175.569 39.9375 176.194 39.75 176.866 39.75C177.965 39.75 178.819 40.112 179.429 40.8359C180.038 41.5599 180.343 42.5964 180.343 43.9453V44.5469H174.616C174.637 45.3802 174.879 46.0547 175.343 46.5703C175.811 47.0807 176.405 47.3359 177.124 47.3359C177.634 47.3359 178.067 47.2318 178.421 47.0234C178.775 46.8151 179.085 46.5391 179.35 46.1953L180.233 46.8828C179.525 47.9714 178.462 48.5156 177.046 48.5156ZM176.866 40.9375C176.283 40.9375 175.793 41.151 175.397 41.5781C175.002 42 174.757 42.5938 174.663 43.3594H178.897V43.25C178.856 42.5156 178.658 41.9479 178.304 41.5469C177.949 41.1406 177.47 40.9375 176.866 40.9375ZM183.64 45.1484H182.335L182.233 36.9844H183.749L183.64 45.1484ZM182.179 47.6328C182.179 47.3984 182.249 47.2031 182.39 47.0469C182.535 46.8854 182.749 46.8047 183.03 46.8047C183.311 46.8047 183.525 46.8854 183.671 47.0469C183.817 47.2031 183.89 47.3984 183.89 47.6328C183.89 47.8672 183.817 48.0625 183.671 48.2188C183.525 48.3698 183.311 48.4453 183.03 48.4453C182.749 48.4453 182.535 48.3698 182.39 48.2188C182.249 48.0625 182.179 47.8672 182.179 47.6328ZM187.765 45.1484H186.46L186.358 36.9844H187.874L187.765 45.1484ZM186.304 47.6328C186.304 47.3984 186.374 47.2031 186.515 47.0469C186.66 46.8854 186.874 46.8047 187.155 46.8047C187.436 46.8047 187.65 46.8854 187.796 47.0469C187.942 47.2031 188.015 47.3984 188.015 47.6328C188.015 47.8672 187.942 48.0625 187.796 48.2188C187.65 48.3698 187.436 48.4453 187.155 48.4453C186.874 48.4453 186.66 48.3698 186.515 48.2188C186.374 48.0625 186.304 47.8672 186.304 47.6328Z" fill="black"/>
</svg>
