<svg width="77" height="77" viewBox="0 0 77 77" fill="none" xmlns="http://www.w3.org/2000/svg">
<path d="M68.75 0H8.25C3.69531 0 0 3.69531 0 8.25V68.75C0 73.3047 3.69531 77 8.25 77H68.75C73.3047 77 77 73.3047 77 68.75V8.25C77 3.69531 73.3047 0 68.75 0ZM60.3453 27.2938C60.3797 27.775 60.3797 28.2734 60.3797 28.7547C60.3797 43.6562 49.0359 60.8266 28.3078 60.8266C21.9141 60.8266 15.9844 58.9703 11 55.7734C11.9109 55.8766 12.7875 55.9109 13.7156 55.9109C18.9922 55.9109 23.8391 54.1234 27.7062 51.0984C22.7562 50.9953 18.5969 47.7469 17.1703 43.2781C18.9063 43.5359 20.4703 43.5359 22.2578 43.0719C17.1016 42.0234 13.2344 37.4859 13.2344 32.0031V31.8656C14.7297 32.7078 16.4828 33.2234 18.3219 33.2922C16.7757 32.2637 15.5083 30.8685 14.6325 29.231C13.7568 27.5936 13.3001 25.7648 13.3031 23.9078C13.3031 21.8109 13.8531 19.8859 14.8328 18.2188C20.3844 25.0594 28.7203 29.5281 38.0703 30.0094C36.4719 22.3609 42.1953 16.1562 49.0703 16.1562C52.3187 16.1562 55.2406 17.5141 57.3031 19.7141C59.8469 19.2328 62.2875 18.2875 64.4531 16.9984C63.6109 19.6109 61.8406 21.8109 59.5031 23.2031C61.7719 22.9625 63.9719 22.3266 66 21.45C64.4703 23.7016 62.5453 25.6953 60.3453 27.2938Z" fill="#375F75"/>
</svg>
