<svg width="1246" height="751" viewBox="0 0 1246 751" fill="none" xmlns="http://www.w3.org/2000/svg">
<g clip-path="url(#clip0)">
<path d="M69.8513 748.809C50.6292 747.311 33.6585 734.14 24.0074 718.323C20.7709 713.019 18.5533 706.062 22.2184 701.014C23.2675 699.57 24.7173 698.427 26.4081 697.713C28.0989 696.999 29.9651 696.74 31.801 696.966C33.6368 697.192 35.3712 697.894 36.8129 698.994C38.2547 700.094 39.3478 701.55 39.972 703.201C38.7915 697.004 38.2842 690.709 38.4581 684.415C38.6058 679.086 39.669 673.06 44.3476 670.097C49.7753 666.659 57.5988 669.388 61.5467 674.314C65.4947 679.241 66.566 685.649 67.5135 691.768C66.7399 689.178 66.6645 686.445 67.2941 683.821C67.9237 681.196 69.2382 678.763 71.1174 676.743C72.9966 674.724 75.3804 673.184 78.0507 672.263C80.721 671.342 83.5925 671.07 86.4025 671.472C94.3523 672.609 100.58 679.128 103.01 686.387C105.44 693.646 104.681 701.517 103.117 708.986C101.283 717.745 98.307 726.434 92.9485 733.781C87.5899 741.128 79.6305 747.05 70.396 748.847L69.8513 748.809Z" fill="#F2F2F2"/>
<path d="M1246 157.528C1246 190.198 1235.28 222.061 1215.32 248.707C1195.36 275.352 1167.15 295.464 1134.6 306.258C1133.56 306.6 1132.51 306.942 1131.46 307.254V147.185H913.727C913.79 146.189 913.868 145.193 913.962 144.212H1131.46V112.945C1131.46 110.974 1130.63 109.085 1129.16 107.691C1127.69 106.298 1125.7 105.515 1123.62 105.514H922.654C923.015 104.518 923.392 103.523 923.8 102.542C937.414 67.9308 963.435 38.9505 997.316 20.664C1031.2 2.37744 1070.78 -4.05277 1109.16 2.49674C1147.54 9.04625 1182.27 28.1591 1207.28 56.4961C1232.29 84.8332 1246 120.593 1246 157.528Z" fill="#F2F2F2"/>
<path d="M1123.62 102.542H359.499C356.587 102.545 353.795 103.642 351.736 105.592C349.677 107.542 348.519 110.186 348.516 112.945V603.362C348.519 606.12 349.677 608.764 351.736 610.714C353.795 612.665 356.587 613.762 359.499 613.765H1123.62C1126.53 613.762 1129.32 612.665 1131.38 610.714C1133.44 608.764 1134.6 606.12 1134.6 603.362V112.945C1134.6 110.186 1133.44 107.542 1131.38 105.592C1129.32 103.642 1126.53 102.545 1123.62 102.542ZM1131.46 603.362C1131.46 605.332 1130.63 607.222 1129.16 608.615C1127.69 610.009 1125.7 610.792 1123.62 610.792H359.499C357.418 610.792 355.423 610.009 353.952 608.615C352.481 607.222 351.654 605.332 351.654 603.362V112.945C351.654 110.974 352.481 109.085 353.952 107.691C355.423 106.298 357.418 105.515 359.499 105.514H1123.62C1125.7 105.515 1127.69 106.298 1129.16 107.691C1130.63 109.085 1131.46 110.974 1131.46 112.945V603.362Z" fill="#375F75"/>
<path d="M1133.03 144.212H350.085V147.185H1133.03V144.212Z" fill="#375F75"/>
<path d="M376.758 133.75C381.957 133.75 386.172 129.758 386.172 124.833C386.172 119.909 381.957 115.917 376.758 115.917C371.559 115.917 367.344 119.909 367.344 124.833C367.344 129.758 371.559 133.75 376.758 133.75Z" fill="#3F3D56"/>
<path d="M403.824 133.75C409.023 133.75 413.238 129.758 413.238 124.833C413.238 119.909 409.023 115.917 403.824 115.917C398.624 115.917 394.41 119.909 394.41 124.833C394.41 129.758 398.624 133.75 403.824 133.75Z" fill="#3F3D56"/>
<path d="M430.89 133.75C436.089 133.75 440.304 129.758 440.304 124.833C440.304 119.909 436.089 115.917 430.89 115.917C425.69 115.917 421.475 119.909 421.475 124.833C421.475 129.758 425.69 133.75 430.89 133.75Z" fill="#3F3D56"/>
<path d="M563.472 205.083H425.398C422.486 205.087 419.694 206.184 417.635 208.134C415.576 210.084 414.418 212.728 414.415 215.486V346.264C414.418 349.022 415.576 351.667 417.635 353.617C419.694 355.567 422.486 356.664 425.398 356.667H563.472C566.384 356.664 569.176 355.567 571.235 353.617C573.294 351.667 574.452 349.022 574.456 346.264V215.486C574.452 212.728 573.294 210.084 571.235 208.134C569.176 206.184 566.384 205.087 563.472 205.083ZM571.318 346.264C571.317 348.235 570.49 350.124 569.019 351.518C567.548 352.911 565.553 353.694 563.472 353.695H425.398C423.318 353.694 421.323 352.911 419.851 351.518C418.38 350.124 417.554 348.235 417.553 346.264V215.486C417.554 213.516 418.38 211.626 419.851 210.233C421.323 208.84 423.318 208.057 425.398 208.056H563.472C565.553 208.057 567.548 208.84 569.019 210.233C570.49 211.626 571.317 213.516 571.318 215.486V346.264Z" fill="#3F3D56"/>
<path d="M811.379 205.827H673.304C670.601 205.832 668.01 206.851 666.099 208.661C664.187 210.472 663.111 212.926 663.106 215.486V346.264C663.111 348.825 664.187 351.279 666.099 353.089C668.01 354.9 670.601 355.919 673.304 355.924H811.379C814.082 355.919 816.673 354.9 818.585 353.089C820.496 351.279 821.572 348.825 821.578 346.264V215.486C821.572 212.926 820.496 210.472 818.585 208.661C816.673 206.851 814.082 205.832 811.379 205.827Z" fill="#FFCD00"/>
<path d="M1059.29 205.827H921.211C918.508 205.832 915.917 206.851 914.005 208.661C912.094 210.472 911.018 212.926 911.012 215.486V346.264C911.018 348.825 912.094 351.279 914.005 353.089C915.917 354.9 918.508 355.919 921.211 355.924H1059.29C1061.99 355.919 1064.58 354.9 1066.49 353.089C1068.4 351.279 1069.48 348.825 1069.48 346.264V215.486C1069.48 212.926 1068.4 210.472 1066.49 208.661C1064.58 206.851 1061.99 205.832 1059.29 205.827Z" fill="#E6E6E6"/>
<path d="M563.473 401.994H425.398C422.695 401.999 420.104 403.018 418.192 404.828C416.281 406.639 415.204 409.093 415.199 411.653V542.431C415.204 544.992 416.281 547.446 418.192 549.256C420.104 551.067 422.695 552.086 425.398 552.091H563.473C566.176 552.086 568.767 551.067 570.678 549.256C572.59 547.446 573.666 544.992 573.671 542.431V411.653C573.666 409.093 572.59 406.639 570.678 404.828C568.767 403.018 566.176 401.999 563.473 401.994Z" fill="#E6E6E6"/>
<path d="M811.379 401.994H673.304C670.601 401.999 668.01 403.018 666.099 404.828C664.187 406.639 663.111 409.093 663.106 411.653V542.431C663.111 544.992 664.187 547.446 666.099 549.256C668.01 551.067 670.601 552.086 673.304 552.091H811.379C814.082 552.086 816.673 551.067 818.585 549.256C820.496 547.446 821.572 544.992 821.578 542.431V411.653C821.572 409.093 820.496 406.639 818.585 404.828C816.673 403.018 814.082 401.999 811.379 401.994Z" fill="#FFCD00"/>
<path d="M1059.29 401.994H921.211C918.508 401.999 915.917 403.018 914.005 404.828C912.094 406.639 911.018 409.093 911.012 411.653V542.431C911.018 544.992 912.094 547.446 914.005 549.256C915.917 551.067 918.508 552.086 921.211 552.091H1059.29C1061.99 552.086 1064.58 551.067 1066.49 549.256C1068.4 547.446 1069.48 544.992 1069.48 542.431V411.653C1069.48 409.093 1068.4 406.639 1066.49 404.828C1064.58 403.018 1061.99 401.999 1059.29 401.994Z" fill="#E6E6E6"/>
<path d="M529.738 423.542H391.664C388.96 423.539 386.368 422.521 384.456 420.71C382.544 418.899 381.468 416.444 381.465 413.882V283.105C381.468 280.544 382.544 278.088 384.456 276.277C386.368 274.466 388.96 273.448 391.664 273.445H529.738C532.442 273.448 535.034 274.466 536.946 276.277C538.858 278.088 539.934 280.544 539.937 283.105V413.882C539.934 416.444 538.858 418.899 536.946 420.71C535.034 422.521 532.442 423.539 529.738 423.542Z" fill="#FFCD00"/>
<path d="M318.114 731.298L336.503 725.953L323.487 656.227L296.346 664.116L318.114 731.298Z" fill="#A0616A"/>
<path d="M377.21 731.818L319.414 748.618L312.561 727.468L348.027 717.159C350.959 716.306 354.04 716.009 357.094 716.285C360.147 716.56 363.114 717.402 365.824 718.764C368.533 720.125 370.934 721.978 372.887 724.218C374.841 726.458 376.31 729.04 377.21 731.818Z" fill="#2F2E41"/>
<path d="M161.215 731.7L180.451 731.698L189.601 661.423L161.211 661.424L161.215 731.7Z" fill="#A0616A"/>
<path d="M217.549 748.615L157.093 748.618L157.092 726.494L194.19 726.492C197.257 726.492 200.295 727.064 203.129 728.176C205.963 729.288 208.538 730.917 210.707 732.971C212.876 735.026 214.597 737.465 215.771 740.149C216.944 742.833 217.549 745.71 217.549 748.615L217.549 748.615Z" fill="#2F2E41"/>
<path d="M159.834 527.987C158.254 526.675 156.997 525.05 156.151 523.228C155.305 521.406 154.891 519.43 154.939 517.44C154.986 515.45 155.494 513.494 156.426 511.71C157.358 509.926 158.692 508.357 160.333 507.114L175.247 329.234L205.578 336.411L181.293 509.928C183.315 512.678 184.202 516.035 183.786 519.363C183.369 522.691 181.678 525.759 179.033 527.985C176.388 530.211 172.972 531.441 169.434 531.441C165.895 531.441 162.48 530.212 159.834 527.987Z" fill="#A0616A"/>
<path d="M220.573 260.243C241.856 260.243 259.11 243.901 259.11 223.742C259.11 203.584 241.856 187.242 220.573 187.242C199.289 187.242 182.036 203.584 182.036 223.742C182.036 243.901 199.289 260.243 220.573 260.243Z" fill="#A0616A"/>
<path d="M187.064 323.762C178.368 312.456 178.1 296.883 187.467 286.069C193.58 279.011 203.804 273.363 220.876 273.363C266.377 273.363 283.637 307.544 283.637 307.544C283.637 307.544 302.465 340.238 291.482 369.96C280.499 399.683 280.499 402.655 280.499 402.655L208.323 396.71C208.323 396.71 220.499 367.238 187.064 323.762Z" fill="#CCCCCC"/>
<path d="M164.807 353.349L180.355 305.168C181.397 301.942 183.174 298.972 185.56 296.467C187.947 293.963 190.885 291.986 194.167 290.675C197.449 289.365 200.995 288.753 204.554 288.883C208.113 289.013 211.599 289.882 214.764 291.429C220.257 294.123 224.462 298.694 226.527 304.216C228.592 309.738 228.363 315.798 225.886 321.165L206.118 363.804L164.807 353.349Z" fill="#CCCCCC"/>
<path d="M278.93 395.224L340.122 695.419L307.172 704.336L227.152 506.683L191.064 708.794L156.545 713.253C156.545 713.253 141.404 445.834 208.323 396.71L278.93 395.224Z" fill="#375F75"/>
<path d="M367.001 381.154C366.443 381.784 365.938 382.455 365.491 383.16L287.769 386.729L272.803 343.454L246.817 355.152L271.274 419.606L367.396 401.802C369.655 404.137 372.611 405.766 375.871 406.472C379.131 407.178 382.541 406.927 385.646 405.752C388.752 404.578 391.407 402.536 393.257 399.897C395.108 397.259 396.066 394.15 396.006 390.983C395.945 387.816 394.868 384.742 392.918 382.169C390.967 379.596 388.236 377.647 385.088 376.58C381.939 375.513 378.522 375.379 375.291 376.196C372.061 377.013 369.169 378.743 367.001 381.154Z" fill="#A0616A"/>
<path d="M235.943 311.86C235.527 308.509 235.892 305.113 237.014 301.911C238.136 298.709 239.987 295.78 242.436 293.33C244.885 290.88 247.872 288.97 251.186 287.734C254.501 286.497 258.061 285.966 261.616 286.177C267.788 286.552 273.579 289.136 277.814 293.406C282.049 297.676 284.411 303.311 284.421 309.169V355.737L242.158 361.896L235.943 311.86Z" fill="#CCCCCC"/>
<path d="M229.048 260.574C223.264 260.55 218.802 254.782 219.061 249.309C219.32 243.836 223.201 239.021 227.877 235.796C232.553 232.571 238.036 230.607 243.25 228.236C248.465 225.864 253.633 222.907 256.853 218.355C258.797 215.377 259.958 211.999 260.238 208.506C260.517 205.014 259.907 201.509 258.458 198.286C255.462 191.841 250.318 186.504 243.814 183.092C234.153 177.736 222.715 176.023 211.78 178.295C200.845 180.567 191.214 186.658 184.808 195.353L178.205 212.381C171.477 220.043 170.41 231.423 174.546 240.587C178.681 249.751 187.487 256.645 197.424 259.923C207.505 262.992 218.298 263.298 228.555 260.807" fill="black"/>
<path d="M193.829 203.863C190.99 199.554 186.071 196.814 180.985 195.206C175.093 193.343 168.826 192.793 162.673 193.599C156.52 194.405 150.646 196.545 145.509 199.853C140.372 203.161 136.111 207.548 133.057 212.671C130.003 217.794 128.238 223.516 127.901 229.391C127.362 238.774 130.464 247.951 132.287 257.189C134.11 266.426 134.472 276.629 129.095 284.527C124.999 290.543 118.168 294.33 111.426 297.564C105.807 300.259 99.7288 302.789 93.4557 302.252C87.1827 301.715 80.8777 297.009 81.0442 291.045C78.9442 295.321 77.5262 299.869 76.8366 304.539C76.3953 309.229 77.6158 314.29 81.1923 317.561C86.3907 322.314 94.6272 321.966 101.771 320.941C117.237 318.72 132.898 314.557 145.116 305.306C157.335 296.055 165.443 280.823 162.225 266.324C160.881 260.267 157.722 254.738 155.169 249.041C152.617 243.343 150.624 237.112 151.797 231.023C152.491 227.886 153.903 224.932 155.935 222.369C157.966 219.806 160.566 217.696 163.553 216.189C169.592 213.215 176.502 212.222 183.201 213.367C187.593 214.049 193.077 215.109 195.681 211.691C196.372 210.609 196.724 209.363 196.698 208.098C196.672 206.834 196.269 205.602 195.534 204.545C194.032 202.455 192.118 200.659 189.898 199.255" fill="black"/>
<path d="M484.022 752H1.86933C1.62353 752.001 1.38 751.955 1.15271 751.867C0.925422 751.778 0.718843 751.648 0.544788 751.483C0.370734 751.319 0.232632 751.124 0.138406 750.909C0.0441796 750.694 -0.0043335 750.463 -0.0043335 750.23C-0.0043335 749.998 0.0441796 749.767 0.138406 749.552C0.232632 749.337 0.370734 749.142 0.544788 748.977C0.718843 748.813 0.925422 748.683 1.15271 748.594C1.38 748.506 1.62353 748.46 1.86933 748.461H484.022C484.268 748.46 484.512 748.506 484.739 748.594C484.966 748.683 485.173 748.813 485.347 748.977C485.521 749.142 485.659 749.337 485.753 749.552C485.848 749.767 485.896 749.998 485.896 750.23C485.896 750.463 485.848 750.694 485.753 750.909C485.659 751.124 485.521 751.319 485.347 751.483C485.173 751.648 484.966 751.778 484.739 751.867C484.512 751.955 484.268 752.001 484.022 752Z" fill="#3F3D56"/>
</g>
<defs>
<clipPath id="clip0">
<rect width="1246" height="751" fill="white"/>
</clipPath>
</defs>
</svg>
