<svg width="522" height="303" viewBox="0 0 522 303" fill="none" xmlns="http://www.w3.org/2000/svg">
<path d="M333.572 303V264.468C333.572 264.468 351.047 291.785 333.572 303Z" fill="#F1F1F1"/>
<path d="M334.652 302.993L301.621 276.935C301.621 276.935 336.856 284.347 334.652 302.993Z" fill="#F1F1F1"/>
<path d="M522 12.293H0.222473V225.063H522V12.293Z" fill="#E5E5E5"/>
<path d="M507.08 30.5383H15.1429V208.059H507.08V30.5383Z" fill="white"/>
<path d="M521.778 0H0V19.049H521.778V0Z" fill="#375F75"/>
<path d="M16.4726 13.0199C18.7417 13.0199 20.5811 11.4392 20.5811 9.48922C20.5811 7.53929 18.7417 5.95856 16.4726 5.95856C14.2035 5.95856 12.3641 7.53929 12.3641 9.48922C12.3641 11.4392 14.2035 13.0199 16.4726 13.0199Z" fill="white"/>
<path d="M32.0671 13.0199C34.3362 13.0199 36.1756 11.4392 36.1756 9.48922C36.1756 7.53929 34.3362 5.95856 32.0671 5.95856C29.7981 5.95856 27.9586 7.53929 27.9586 9.48922C27.9586 11.4392 29.7981 13.0199 32.0671 13.0199Z" fill="white"/>
<path d="M47.6624 13.0199C49.9315 13.0199 51.7709 11.4392 51.7709 9.48922C51.7709 7.53929 49.9315 5.95856 47.6624 5.95856C45.3933 5.95856 43.5539 7.53929 43.5539 9.48922C43.5539 11.4392 45.3933 13.0199 47.6624 13.0199Z" fill="white"/>
<path d="M95.7388 70.9508C95.2016 70.9508 94.6863 71.1342 94.3065 71.4607C93.9266 71.7871 93.7132 72.2298 93.7132 72.6915C93.7132 73.1532 93.9266 73.5959 94.3065 73.9224C94.6863 74.2488 95.2016 74.4322 95.7388 74.4322H151.085C151.622 74.4322 152.137 74.2488 152.517 73.9224C152.897 73.5959 153.111 73.1532 153.111 72.6915C153.111 72.2298 152.897 71.7871 152.517 71.4607C152.137 71.1342 151.622 70.9508 151.085 70.9508H95.7388Z" fill="#3F3D56"/>
<path d="M64.4375 94.9202C63.9003 94.9202 63.385 95.1036 63.0052 95.43C62.6253 95.7565 62.4119 96.1992 62.4119 96.6609C62.4119 97.1225 62.6253 97.5653 63.0052 97.8917C63.385 98.2182 63.9003 98.4016 64.4375 98.4016H182.386C182.924 98.4016 183.439 98.2182 183.819 97.8917C184.199 97.5653 184.412 97.1225 184.412 96.6609C184.412 96.1992 184.199 95.7565 183.819 95.43C183.439 95.1036 182.924 94.9202 182.386 94.9202H64.4375Z" fill="#CCCCCC"/>
<path d="M64.4375 108.769C63.9003 108.769 63.385 108.952 63.0052 109.279C62.6253 109.605 62.4119 110.048 62.4119 110.51C62.4119 110.971 62.6253 111.414 63.0052 111.741C63.385 112.067 63.9003 112.25 64.4375 112.25H182.386C182.924 112.25 183.439 112.067 183.819 111.741C184.199 111.414 184.412 110.971 184.412 110.51C184.412 110.048 184.199 109.605 183.819 109.279C183.439 108.952 182.924 108.769 182.386 108.769H64.4375Z" fill="#CCCCCC"/>
<path d="M64.4375 122.618C63.9003 122.618 63.385 122.801 63.0052 123.128C62.6253 123.454 62.4119 123.897 62.4119 124.359C62.4119 124.82 62.6253 125.263 63.0052 125.59C63.385 125.916 63.9003 126.099 64.4375 126.099H182.386C182.924 126.099 183.439 125.916 183.819 125.59C184.199 125.263 184.412 124.82 184.412 124.359C184.412 123.897 184.199 123.454 183.819 123.128C183.439 122.801 182.924 122.618 182.386 122.618H64.4375Z" fill="#CCCCCC"/>
<path d="M64.4375 136.467C63.9003 136.467 63.385 136.65 63.0052 136.977C62.6253 137.303 62.4119 137.746 62.4119 138.208C62.4119 138.669 62.6253 139.112 63.0052 139.438C63.385 139.765 63.9003 139.948 64.4375 139.948H182.386C182.924 139.948 183.439 139.765 183.819 139.438C184.199 139.112 184.412 138.669 184.412 138.208C184.412 137.746 184.199 137.303 183.819 136.977C183.439 136.65 182.924 136.467 182.386 136.467H64.4375Z" fill="#CCCCCC"/>
<path d="M64.4375 150.316C63.9003 150.316 63.385 150.499 63.0052 150.826C62.6253 151.152 62.4119 151.595 62.4119 152.057C62.4119 152.518 62.6253 152.961 63.0052 153.288C63.385 153.614 63.9003 153.797 64.4375 153.797H182.386C182.924 153.797 183.439 153.614 183.819 153.288C184.199 152.961 184.412 152.518 184.412 152.057C184.412 151.595 184.199 151.152 183.819 150.826C183.439 150.499 182.924 150.316 182.386 150.316H64.4375Z" fill="#CCCCCC"/>
<path d="M64.4375 164.165C63.9003 164.165 63.385 164.348 63.0052 164.675C62.6253 165.001 62.4119 165.444 62.4119 165.905C62.4119 166.367 62.6253 166.81 63.0052 167.136C63.385 167.463 63.9003 167.646 64.4375 167.646H182.386C182.924 167.646 183.439 167.463 183.819 167.136C184.199 166.81 184.412 166.367 184.412 165.905C184.412 165.444 184.199 165.001 183.819 164.675C183.439 164.348 182.924 164.165 182.386 164.165H64.4375Z" fill="#CCCCCC"/>
<path d="M453.534 168.391H274.96C273.766 168.39 272.622 167.982 271.778 167.257C270.934 166.532 270.459 165.548 270.458 164.523V74.2531C270.459 73.2274 270.934 72.244 271.778 71.5188C272.622 70.7935 273.766 70.3855 274.96 70.3844H453.534C454.727 70.3855 455.871 70.7935 456.715 71.5188C457.559 72.244 458.034 73.2274 458.035 74.2531V164.523C458.034 165.548 457.559 166.532 456.715 167.257C455.871 167.982 454.727 168.39 453.534 168.391Z" fill="#F1F1F1"/>
<path d="M477.025 189.038H298.451C297.258 189.037 296.113 188.629 295.269 187.904C294.425 187.178 293.951 186.195 293.949 185.169V94.8997C293.951 93.874 294.425 92.8906 295.269 92.1653C296.113 91.4401 297.258 91.0321 298.451 91.031H477.025C478.219 91.0321 479.363 91.4401 480.207 92.1653C481.051 92.8906 481.526 93.874 481.527 94.8997V185.169C481.526 186.195 481.051 187.178 480.207 187.904C479.363 188.629 478.219 189.037 477.025 189.038Z" fill="white"/>
<path d="M477.025 190.355H298.451C296.851 190.353 295.318 189.806 294.187 188.834C293.055 187.862 292.419 186.544 292.417 185.169V94.8999C292.419 93.5252 293.055 92.2072 294.187 91.2351C295.318 90.263 296.851 89.7162 298.451 89.7146H477.025C478.625 89.7161 480.158 90.263 481.29 91.235C482.421 92.2071 483.057 93.5251 483.059 94.8999V185.169C483.057 186.544 482.421 187.862 481.29 188.834C480.158 189.806 478.625 190.353 477.025 190.355ZM298.451 92.3475C297.664 92.3483 296.909 92.6175 296.352 93.096C295.795 93.5745 295.482 94.2232 295.481 94.8999V185.169C295.482 185.846 295.795 186.495 296.352 186.973C296.909 187.452 297.664 187.721 298.451 187.722H477.025C477.812 187.721 478.567 187.452 479.124 186.973C479.681 186.495 479.994 185.846 479.995 185.169V94.8999C479.994 94.2232 479.681 93.5745 479.124 93.096C478.567 92.6175 477.812 92.3483 477.025 92.3475H298.451Z" fill="#3F3D56"/>
<path d="M387.497 165.351C396.055 165.351 402.993 159.389 402.993 152.035C402.993 144.681 396.055 138.719 387.497 138.719C378.939 138.719 372.002 144.681 372.002 152.035C372.002 159.389 378.939 165.351 387.497 165.351Z" fill="#FF6583"/>
<path d="M417.39 139.224C416.478 138.392 415.382 137.726 414.166 137.264C412.949 136.802 411.638 136.553 410.308 136.533C408.979 136.512 407.658 136.72 406.423 137.145C405.189 137.57 404.065 138.202 403.119 139.005L352.864 182.192C346.426 187.75 339.706 179.249 335.412 175.821C325.085 167.045 313.931 183.502 306.99 188.214H468.486V186.448L417.39 139.224Z" fill="#375F75"/>
<path d="M218.321 191.574L215.604 159.213L220.484 128.889L206.624 128.084L203.888 161.582L211.62 193.083C210.962 193.865 210.6 194.803 210.586 195.769C210.571 196.734 210.904 197.68 211.539 198.477C212.174 199.274 213.08 199.882 214.133 200.22C215.185 200.557 216.334 200.607 217.421 200.362C218.508 200.118 219.48 199.59 220.205 198.852C220.93 198.115 221.372 197.202 221.47 196.24C221.569 195.279 221.319 194.314 220.756 193.479C220.192 192.643 219.342 191.978 218.321 191.574Z" fill="#9F616A"/>
<path d="M204.855 132.443L208.11 120.338C208.733 118.02 210.364 115.994 212.669 114.676C214.974 113.358 217.779 112.848 220.507 113.25C223.236 113.651 225.683 114.934 227.346 116.836C229.01 118.738 229.764 121.114 229.454 123.479L227.662 137.157L204.855 132.443Z" fill="#CBCBCB"/>
<path d="M230.516 297.005H237.05L240.158 275.345L230.514 275.346L230.516 297.005Z" fill="#9F616A"/>
<path d="M228.849 295.172L241.717 295.171H241.718C243.893 295.171 245.979 295.914 247.517 297.235C249.054 298.557 249.919 300.349 249.919 302.219V302.448L228.849 302.448L228.849 295.172Z" fill="#2F2E41"/>
<path d="M263.07 296.821L269.352 295.275L265.4 273.717L256.129 275.999L263.07 296.821Z" fill="#9F616A"/>
<path d="M260.88 295.453L273.251 292.408L273.252 292.407C275.342 291.893 277.586 292.113 279.488 293.02C281.389 293.926 282.794 295.445 283.394 297.242L283.467 297.462L263.212 302.448L260.88 295.453Z" fill="#2F2E41"/>
<path d="M226.984 289.144L230.023 223.532L222.129 193.84C211.506 178.534 222.967 154.12 223.084 153.875L223.126 153.786L223.238 153.773L251.026 150.538L251.416 151.307C262.285 172.662 265.302 196.36 260.061 219.229L257.169 231.941L271.463 281.537L257.935 287.349L247.556 264.219L240.54 287.884L226.984 289.144Z" fill="#2F2E41"/>
<path d="M219.424 159.961L210.358 137.134C204.723 128.605 208.297 121.033 212.289 116.183C216.599 110.946 216.858 108.009 216.915 107.976L216.961 107.95L228.872 107.64L239.895 117.266C240.588 117.033 246.445 129.436 245.949 130.06L253.648 151.447L219.424 159.961Z" fill="#CBCBCB"/>
<path d="M292.828 163.908L262.965 144.057L239.935 120.701L229.99 129.037L257.201 153.138L289.665 169.205C289.904 170.148 290.476 171.006 291.303 171.659C292.13 172.313 293.172 172.73 294.287 172.856C295.401 172.981 296.533 172.807 297.528 172.358C298.523 171.91 299.332 171.208 299.845 170.349C300.358 169.489 300.55 168.515 300.394 167.559C300.238 166.603 299.742 165.711 298.974 165.006C298.206 164.301 297.203 163.818 296.103 163.621C295.003 163.425 293.859 163.525 292.828 163.908V163.908Z" fill="#9F616A"/>
<path d="M227.164 137.483L218.843 127.323C217.249 125.378 216.582 122.982 216.978 120.627C217.373 118.273 218.802 116.137 220.97 114.658C223.139 113.179 225.884 112.469 228.642 112.673C231.4 112.877 233.963 113.98 235.806 115.756L246.466 126.029L227.164 137.483Z" fill="#CBCBCB"/>
<path d="M221.515 104.841C229.327 104.841 235.659 99.3992 235.659 92.6864C235.659 85.9736 229.327 80.5319 221.515 80.5319C213.704 80.5319 207.372 85.9736 207.372 92.6864C207.372 99.3992 213.704 104.841 221.515 104.841Z" fill="#9F616A"/>
<path d="M235.897 86.5201H213.438V78.1073C218.367 76.4244 223.191 74.9932 226.107 78.1073C228.703 78.1074 231.194 78.9937 233.029 80.5714C234.865 82.1491 235.897 84.2889 235.897 86.5201Z" fill="#2F2E41"/>
<path d="M216.534 76.09C195.956 75.6072 199.853 104.739 199.853 104.739C199.853 104.739 203.735 105.18 205.507 105.439L207.646 104.404L209.948 105.702C211.005 105.706 212.115 105.688 213.266 105.67L214.322 103.803L216.675 105.637C220.958 105.642 232.584 105.744 232.584 105.744C232.584 105.744 239.589 76.6311 216.534 76.09Z" fill="#2F2E41"/>
<path d="M383.166 302.775H147.012C146.847 302.775 146.69 302.719 146.573 302.619C146.457 302.519 146.392 302.384 146.392 302.243C146.392 302.101 146.457 301.966 146.573 301.866C146.69 301.766 146.847 301.71 147.012 301.71H383.166C383.33 301.71 383.488 301.766 383.604 301.866C383.72 301.966 383.786 302.101 383.786 302.243C383.786 302.384 383.72 302.519 383.604 302.619C383.488 302.719 383.33 302.775 383.166 302.775Z" fill="#CBCBCB"/>
</svg>
